<svg xmlns="http://www.w3.org/2000/svg" xmlns:xlink="http://www.w3.org/1999/xlink" width="500" zoomAndPan="magnify" viewBox="0 0 375 374.999991" height="500" preserveAspectRatio="xMidYMid meet" version="1.0"><defs><clipPath id="061d19650d"><path d="M 104.382812 91.984375 L 270.617188 91.984375 L 270.617188 283 L 104.382812 283 Z M 104.382812 91.984375 " clip-rule="nonzero"/></clipPath><clipPath id="3a06729521"><path d="M 53.777344 53.777344 L 321.527344 53.777344 L 321.527344 321.527344 L 53.777344 321.527344 Z M 53.777344 53.777344 " clip-rule="nonzero"/></clipPath></defs><g clip-path="url(#061d19650d)"><path fill="#000000" d="M 104.382812 91.984375 L 270.789062 91.984375 L 270.789062 283 L 104.382812 283 Z M 104.382812 91.984375 " fill-opacity="1" fill-rule="nonzero"/></g><g clip-path="url(#3a06729521)"><path fill="#ffffff" d="M 187.652344 53.777344 C 185.460938 53.777344 183.273438 53.832031 181.082031 53.9375 C 178.894531 54.046875 176.710938 54.207031 174.53125 54.421875 C 172.351562 54.636719 170.175781 54.90625 168.007812 55.226562 C 165.839844 55.546875 163.683594 55.921875 161.535156 56.351562 C 159.386719 56.777344 157.25 57.257812 155.125 57.789062 C 153 58.320312 150.886719 58.90625 148.789062 59.542969 C 146.695312 60.179688 144.613281 60.863281 142.550781 61.601562 C 140.488281 62.339844 138.445312 63.128906 136.421875 63.96875 C 134.398438 64.804688 132.394531 65.695312 130.414062 66.632812 C 128.433594 67.566406 126.476562 68.550781 124.542969 69.585938 C 122.613281 70.617188 120.707031 71.699219 118.828125 72.824219 C 116.949219 73.949219 115.097656 75.121094 113.277344 76.339844 C 111.453125 77.558594 109.664062 78.816406 107.902344 80.125 C 106.144531 81.429688 104.417969 82.777344 102.722656 84.164062 C 101.03125 85.554688 99.371094 86.984375 97.746094 88.457031 C 96.125 89.929688 94.539062 91.4375 92.988281 92.988281 C 91.4375 94.539062 89.929688 96.125 88.457031 97.746094 C 86.984375 99.371094 85.554688 101.03125 84.164062 102.722656 C 82.777344 104.417969 81.429688 106.144531 80.125 107.902344 C 78.816406 109.664062 77.558594 111.453125 76.339844 113.277344 C 75.121094 115.097656 73.949219 116.949219 72.824219 118.828125 C 71.699219 120.707031 70.617188 122.613281 69.585938 124.542969 C 68.550781 126.476562 67.566406 128.433594 66.632812 130.414062 C 65.695312 132.394531 64.804688 134.398438 63.96875 136.421875 C 63.128906 138.445312 62.339844 140.488281 61.601562 142.550781 C 60.863281 144.613281 60.179688 146.695312 59.542969 148.789062 C 58.90625 150.886719 58.320312 153 57.789062 155.125 C 57.257812 157.25 56.777344 159.386719 56.351562 161.535156 C 55.921875 163.683594 55.546875 165.839844 55.226562 168.007812 C 54.90625 170.175781 54.636719 172.351562 54.421875 174.53125 C 54.207031 176.710938 54.046875 178.894531 53.9375 181.082031 C 53.832031 183.273438 53.777344 185.460938 53.777344 187.652344 C 53.777344 189.84375 53.832031 192.03125 53.9375 194.222656 C 54.046875 196.410156 54.207031 198.59375 54.421875 200.773438 C 54.636719 202.953125 54.90625 205.128906 55.226562 207.296875 C 55.546875 209.464844 55.921875 211.621094 56.351562 213.769531 C 56.777344 215.917969 57.257812 218.054688 57.789062 220.179688 C 58.320312 222.308594 58.90625 224.417969 59.542969 226.515625 C 60.179688 228.609375 60.863281 230.691406 61.601562 232.753906 C 62.339844 234.816406 63.128906 236.859375 63.96875 238.882812 C 64.804688 240.910156 65.695312 242.910156 66.632812 244.890625 C 67.566406 246.871094 68.550781 248.828125 69.585938 250.761719 C 70.617188 252.691406 71.699219 254.597656 72.824219 256.476562 C 73.949219 258.355469 75.121094 260.207031 76.339844 262.03125 C 77.558594 263.851562 78.816406 265.640625 80.121094 267.402344 C 81.429688 269.160156 82.777344 270.886719 84.164062 272.582031 C 85.554688 274.277344 86.984375 275.933594 88.457031 277.558594 C 89.929688 279.179688 91.4375 280.765625 92.988281 282.316406 C 94.539062 283.867188 96.125 285.375 97.746094 286.847656 C 99.371094 288.320312 101.03125 289.75 102.722656 291.140625 C 104.417969 292.527344 106.144531 293.875 107.902344 295.183594 C 109.664062 296.488281 111.453125 297.75 113.277344 298.964844 C 115.097656 300.183594 116.949219 301.355469 118.828125 302.480469 C 120.707031 303.605469 122.613281 304.6875 124.542969 305.71875 C 126.476562 306.753906 128.433594 307.738281 130.414062 308.675781 C 132.394531 309.609375 134.398438 310.5 136.421875 311.335938 C 138.445312 312.175781 140.488281 312.964844 142.550781 313.703125 C 144.613281 314.441406 146.695312 315.125 148.789062 315.761719 C 150.886719 316.398438 153 316.984375 155.125 317.515625 C 157.25 318.046875 159.386719 318.527344 161.535156 318.957031 C 163.683594 319.382812 165.839844 319.757812 168.007812 320.078125 C 170.175781 320.398438 172.351562 320.667969 174.53125 320.882812 C 176.710938 321.097656 178.894531 321.257812 181.082031 321.367188 C 183.273438 321.472656 185.460938 321.527344 187.652344 321.527344 C 189.84375 321.527344 192.03125 321.472656 194.222656 321.367188 C 196.410156 321.257812 198.59375 321.097656 200.773438 320.882812 C 202.953125 320.667969 205.128906 320.398438 207.296875 320.078125 C 209.464844 319.757812 211.621094 319.382812 213.769531 318.957031 C 215.917969 318.527344 218.054688 318.046875 220.179688 317.515625 C 222.308594 316.984375 224.417969 316.398438 226.515625 315.761719 C 228.609375 315.125 230.691406 314.441406 232.753906 313.703125 C 234.816406 312.964844 236.859375 312.175781 238.882812 311.335938 C 240.910156 310.5 242.910156 309.609375 244.890625 308.675781 C 246.871094 307.738281 248.828125 306.753906 250.761719 305.71875 C 252.691406 304.6875 254.597656 303.605469 256.476562 302.480469 C 258.355469 301.355469 260.207031 300.183594 262.03125 298.964844 C 263.851562 297.75 265.640625 296.488281 267.402344 295.183594 C 269.160156 293.875 270.886719 292.527344 272.582031 291.140625 C 274.277344 289.75 275.933594 288.320312 277.558594 286.847656 C 279.179688 285.375 280.765625 283.867188 282.316406 282.316406 C 283.867188 280.765625 285.375 279.179688 286.847656 277.558594 C 288.320312 275.933594 289.75 274.277344 291.140625 272.582031 C 292.527344 270.886719 293.875 269.160156 295.183594 267.402344 C 296.488281 265.640625 297.75 263.851562 298.964844 262.03125 C 300.183594 260.207031 301.355469 258.355469 302.480469 256.476562 C 303.605469 254.597656 304.6875 252.691406 305.71875 250.761719 C 306.753906 248.828125 307.738281 246.871094 308.675781 244.890625 C 309.609375 242.910156 310.5 240.910156 311.335938 238.882812 C 312.175781 236.859375 312.964844 234.816406 313.703125 232.753906 C 314.441406 230.691406 315.125 228.609375 315.761719 226.515625 C 316.398438 224.417969 316.984375 222.308594 317.515625 220.179688 C 318.046875 218.054688 318.527344 215.917969 318.957031 213.769531 C 319.382812 211.621094 319.757812 209.464844 320.078125 207.296875 C 320.398438 205.128906 320.667969 202.953125 320.882812 200.773438 C 321.097656 198.59375 321.257812 196.410156 321.367188 194.222656 C 321.472656 192.03125 321.527344 189.84375 321.527344 187.652344 C 321.527344 185.460938 321.472656 183.273438 321.363281 181.085938 C 321.253906 178.898438 321.09375 176.710938 320.878906 174.53125 C 320.660156 172.351562 320.390625 170.179688 320.070312 168.011719 C 319.746094 165.84375 319.371094 163.6875 318.945312 161.539062 C 318.515625 159.390625 318.035156 157.253906 317.503906 155.128906 C 316.96875 153.003906 316.386719 150.894531 315.75 148.796875 C 315.113281 146.703125 314.425781 144.621094 313.6875 142.558594 C 312.945312 140.496094 312.160156 138.453125 311.320312 136.429688 C 310.480469 134.40625 309.59375 132.40625 308.65625 130.425781 C 307.71875 128.445312 306.734375 126.488281 305.699219 124.558594 C 304.667969 122.625 303.585938 120.71875 302.460938 118.839844 C 301.335938 116.960938 300.164062 115.113281 298.945312 113.289062 C 297.726562 111.46875 296.46875 109.679688 295.160156 107.917969 C 293.855469 106.160156 292.507812 104.433594 291.121094 102.742188 C 289.730469 101.046875 288.300781 99.390625 286.828125 97.765625 C 285.355469 96.144531 283.847656 94.554688 282.296875 93.007812 C 280.75 91.457031 279.164062 89.949219 277.539062 88.476562 C 275.917969 87.003906 274.257812 85.574219 272.566406 84.183594 C 270.871094 82.796875 269.144531 81.449219 267.386719 80.144531 C 265.625 78.835938 263.835938 77.578125 262.015625 76.359375 C 260.191406 75.140625 258.34375 73.96875 256.464844 72.84375 C 254.585938 71.71875 252.679688 70.636719 250.746094 69.605469 C 248.816406 68.570312 246.859375 67.585938 244.878906 66.648438 C 242.898438 65.710938 240.898438 64.824219 238.875 63.984375 C 236.851562 63.148438 234.808594 62.359375 232.746094 61.621094 C 230.683594 60.878906 228.601562 60.191406 226.507812 59.554688 C 224.410156 58.921875 222.300781 58.335938 220.175781 57.800781 C 218.050781 57.269531 215.914062 56.789062 213.765625 56.359375 C 211.617188 55.933594 209.460938 55.558594 207.292969 55.234375 C 205.125 54.914062 202.953125 54.644531 200.773438 54.429688 C 198.59375 54.210938 196.410156 54.050781 194.21875 53.941406 C 192.03125 53.832031 189.84375 53.777344 187.652344 53.777344 Z M 213.800781 254.128906 C 213.800781 254.617188 213.707031 255.089844 213.519531 255.542969 C 213.332031 255.992188 213.0625 256.394531 212.71875 256.738281 C 212.371094 257.085938 211.972656 257.351562 211.519531 257.539062 C 211.066406 257.726562 210.597656 257.820312 210.105469 257.820312 L 178.207031 257.820312 C 177.71875 257.820312 177.246094 257.726562 176.792969 257.539062 C 176.339844 257.351562 175.941406 257.085938 175.597656 256.738281 C 175.25 256.394531 174.984375 255.992188 174.796875 255.542969 C 174.609375 255.089844 174.515625 254.617188 174.515625 254.128906 L 174.515625 161.699219 L 151.644531 172.1875 C 151.15625 172.414062 150.640625 172.523438 150.101562 172.523438 C 149.5625 172.523438 149.050781 172.414062 148.5625 172.1875 C 148.074219 171.960938 147.652344 171.644531 147.304688 171.238281 C 146.953125 170.832031 146.707031 170.367188 146.558594 169.851562 L 138.949219 143.140625 C 138.832031 142.730469 138.789062 142.316406 138.8125 141.890625 C 138.839844 141.464844 138.9375 141.058594 139.109375 140.664062 C 139.277344 140.273438 139.503906 139.921875 139.792969 139.609375 C 140.085938 139.296875 140.417969 139.042969 140.796875 138.847656 L 181.421875 117.890625 C 181.949219 117.617188 182.515625 117.484375 183.109375 117.484375 L 210.097656 117.484375 C 210.585938 117.484375 211.058594 117.578125 211.511719 117.765625 C 211.964844 117.953125 212.363281 118.21875 212.707031 118.566406 C 213.054688 118.910156 213.320312 119.3125 213.507812 119.761719 C 213.695312 120.214844 213.789062 120.6875 213.789062 121.175781 Z M 213.800781 254.128906 " fill-opacity="1" fill-rule="evenodd"/></g></svg>