<svg xmlns="http://www.w3.org/2000/svg" xmlns:xlink="http://www.w3.org/1999/xlink" width="500" zoomAndPan="magnify" viewBox="0 0 375 374.999991" height="500" preserveAspectRatio="xMidYMid meet" version="1.0"><defs><clipPath id="f00caf1933"><path d="M 104.382812 91.984375 L 270.617188 91.984375 L 270.617188 283 L 104.382812 283 Z M 104.382812 91.984375 " clip-rule="nonzero"/></clipPath><clipPath id="208b28370e"><path d="M 37.5 37.5 L 337.5 37.5 L 337.5 337.5 L 37.5 337.5 Z M 37.5 37.5 " clip-rule="nonzero"/></clipPath></defs><g clip-path="url(#f00caf1933)"><path fill="#ffffff" d="M 104.382812 91.984375 L 270.789062 91.984375 L 270.789062 283 L 104.382812 283 Z M 104.382812 91.984375 " fill-opacity="1" fill-rule="nonzero"/></g><path fill="#004b27" d="M 187.550781 168.25 C 189.367188 168.359375 191.132812 168.121094 192.855469 167.539062 C 194.578125 166.957031 196.128906 166.074219 197.503906 164.886719 C 198.609375 163.917969 199.464844 162.761719 200.070312 161.425781 C 200.675781 160.085938 200.980469 158.679688 200.980469 157.210938 C 200.984375 155.761719 200.6875 154.378906 200.085938 153.0625 C 199.484375 151.746094 198.632812 150.613281 197.535156 149.667969 C 196.144531 148.5 194.585938 147.628906 192.859375 147.058594 C 191.136719 146.488281 189.367188 146.257812 187.550781 146.367188 C 185.734375 146.257812 183.964844 146.488281 182.238281 147.058594 C 180.511719 147.628906 178.949219 148.5 177.558594 149.667969 C 177.019531 150.148438 176.535156 150.679688 176.105469 151.265625 C 175.679688 151.847656 175.316406 152.46875 175.019531 153.128906 C 174.722656 153.789062 174.5 154.472656 174.347656 155.179688 C 174.195312 155.886719 174.121094 156.601562 174.121094 157.324219 C 174.121094 158.046875 174.195312 158.761719 174.347656 159.46875 C 174.5 160.175781 174.722656 160.859375 175.019531 161.519531 C 175.316406 162.179688 175.679688 162.800781 176.105469 163.382812 C 176.535156 163.96875 177.019531 164.5 177.558594 164.980469 C 178.953125 166.140625 180.515625 167.003906 182.242188 167.570312 C 183.96875 168.132812 185.738281 168.359375 187.550781 168.25 Z M 187.550781 168.25 " fill-opacity="1" fill-rule="evenodd"/><path fill="#004b27" d="M 187.550781 200.347656 C 185.105469 200.1875 182.714844 200.476562 180.378906 201.21875 C 178.042969 201.960938 175.921875 203.105469 174.019531 204.652344 C 173.660156 204.992188 173.316406 205.347656 172.988281 205.722656 C 172.664062 206.097656 172.359375 206.488281 172.074219 206.894531 C 171.785156 207.300781 171.523438 207.71875 171.28125 208.152344 C 171.035156 208.585938 170.816406 209.027344 170.621094 209.484375 C 170.421875 209.941406 170.25 210.402344 170.097656 210.878906 C 169.949219 211.351562 169.824219 211.828125 169.722656 212.316406 C 169.621094 212.800781 169.546875 213.292969 169.496094 213.785156 C 169.445312 214.28125 169.421875 214.773438 169.421875 215.269531 C 169.421875 215.765625 169.445312 216.261719 169.496094 216.753906 C 169.546875 217.25 169.621094 217.738281 169.722656 218.226562 C 169.824219 218.710938 169.949219 219.191406 170.097656 219.664062 C 170.25 220.136719 170.421875 220.601562 170.621094 221.058594 C 170.816406 221.511719 171.035156 221.957031 171.28125 222.390625 C 171.523438 222.824219 171.785156 223.242188 172.074219 223.648438 C 172.359375 224.054688 172.664062 224.445312 172.988281 224.820312 C 173.316406 225.191406 173.660156 225.550781 174.019531 225.890625 C 175.917969 227.445312 178.03125 228.597656 180.367188 229.347656 C 182.703125 230.097656 185.09375 230.394531 187.542969 230.234375 C 189.972656 230.386719 192.34375 230.085938 194.660156 229.335938 C 196.976562 228.582031 199.070312 227.429688 200.949219 225.878906 C 201.3125 225.542969 201.65625 225.1875 201.984375 224.8125 C 202.3125 224.4375 202.617188 224.050781 202.90625 223.644531 C 203.191406 223.238281 203.457031 222.820312 203.703125 222.386719 C 203.945312 221.957031 204.167969 221.511719 204.367188 221.058594 C 204.5625 220.601562 204.738281 220.136719 204.890625 219.664062 C 205.039062 219.191406 205.164062 218.710938 205.265625 218.226562 C 205.367188 217.738281 205.445312 217.25 205.496094 216.757812 C 205.546875 216.261719 205.570312 215.765625 205.570312 215.269531 C 205.570312 214.773438 205.546875 214.277344 205.496094 213.785156 C 205.445312 213.292969 205.367188 212.800781 205.265625 212.316406 C 205.164062 211.828125 205.039062 211.351562 204.890625 210.875 C 204.738281 210.402344 204.5625 209.941406 204.367188 209.484375 C 204.167969 209.03125 203.945312 208.585938 203.703125 208.152344 C 203.457031 207.722656 203.191406 207.300781 202.90625 206.898438 C 202.617188 206.492188 202.3125 206.101562 201.984375 205.730469 C 201.65625 205.355469 201.3125 205 200.949219 204.660156 C 199.066406 203.128906 196.96875 201.988281 194.65625 201.246094 C 192.34375 200.5 189.976562 200.203125 187.550781 200.347656 Z M 187.550781 200.347656 " fill-opacity="1" fill-rule="evenodd"/><g clip-path="url(#208b28370e)"><path fill="#004b27" d="M 187.5 37.5 C 185.046875 37.5 182.589844 37.558594 180.140625 37.679688 C 177.6875 37.800781 175.242188 37.980469 172.796875 38.222656 C 170.355469 38.464844 167.917969 38.761719 165.492188 39.125 C 163.0625 39.484375 160.644531 39.902344 158.238281 40.382812 C 155.828125 40.859375 153.433594 41.398438 151.054688 41.996094 C 148.671875 42.589844 146.304688 43.246094 143.957031 43.957031 C 141.609375 44.671875 139.277344 45.441406 136.964844 46.269531 C 134.65625 47.09375 132.367188 47.980469 130.097656 48.917969 C 127.828125 49.859375 125.585938 50.851562 123.367188 51.902344 C 121.148438 52.953125 118.957031 54.054688 116.789062 55.210938 C 114.625 56.367188 112.488281 57.578125 110.382812 58.839844 C 108.277344 60.101562 106.207031 61.414062 104.164062 62.78125 C 102.125 64.144531 100.117188 65.554688 98.144531 67.019531 C 96.171875 68.480469 94.238281 69.992188 92.339844 71.546875 C 90.441406 73.105469 88.585938 74.707031 86.765625 76.355469 C 84.945312 78.007812 83.167969 79.699219 81.433594 81.433594 C 79.699219 83.167969 78.007812 84.945312 76.355469 86.765625 C 74.707031 88.585938 73.105469 90.445312 71.546875 92.339844 C 69.992188 94.238281 68.480469 96.171875 67.019531 98.144531 C 65.554688 100.117188 64.144531 102.125 62.78125 104.164062 C 61.414062 106.207031 60.101562 108.277344 58.839844 110.382812 C 57.578125 112.488281 56.367188 114.625 55.210938 116.789062 C 54.054688 118.957031 52.953125 121.148438 51.902344 123.367188 C 50.851562 125.585938 49.859375 127.828125 48.917969 130.097656 C 47.980469 132.367188 47.09375 134.65625 46.269531 136.964844 C 45.441406 139.277344 44.671875 141.609375 43.957031 143.957031 C 43.246094 146.304688 42.589844 148.671875 41.996094 151.054688 C 41.398438 153.433594 40.859375 155.828125 40.382812 158.238281 C 39.902344 160.644531 39.484375 163.0625 39.125 165.492188 C 38.761719 167.917969 38.464844 170.355469 38.222656 172.796875 C 37.980469 175.242188 37.800781 177.6875 37.679688 180.140625 C 37.558594 182.589844 37.5 185.046875 37.5 187.5 C 37.5 189.953125 37.558594 192.410156 37.679688 194.859375 C 37.800781 197.3125 37.980469 199.757812 38.222656 202.203125 C 38.464844 204.644531 38.761719 207.082031 39.125 209.507812 C 39.484375 211.9375 39.902344 214.355469 40.382812 216.761719 C 40.859375 219.171875 41.398438 221.566406 41.996094 223.945312 C 42.589844 226.328125 43.246094 228.695312 43.957031 231.042969 C 44.671875 233.390625 45.441406 235.722656 46.269531 238.035156 C 47.09375 240.34375 47.980469 242.632812 48.917969 244.902344 C 49.859375 247.171875 50.851562 249.414062 51.902344 251.632812 C 52.953125 253.851562 54.054688 256.042969 55.210938 258.210938 C 56.367188 260.375 57.578125 262.507812 58.839844 264.617188 C 60.101562 266.722656 61.414062 268.792969 62.78125 270.835938 C 64.144531 272.875 65.554688 274.882812 67.019531 276.855469 C 68.480469 278.828125 69.992188 280.761719 71.546875 282.660156 C 73.105469 284.554688 74.707031 286.414062 76.355469 288.234375 C 78.007812 290.050781 79.699219 291.832031 81.433594 293.566406 C 83.167969 295.300781 84.945312 296.992188 86.765625 298.644531 C 88.585938 300.292969 90.441406 301.894531 92.339844 303.453125 C 94.238281 305.007812 96.171875 306.519531 98.144531 307.980469 C 100.117188 309.445312 102.125 310.855469 104.164062 312.21875 C 106.207031 313.585938 108.277344 314.898438 110.382812 316.160156 C 112.488281 317.421875 114.625 318.632812 116.789062 319.789062 C 118.957031 320.945312 121.148438 322.046875 123.367188 323.097656 C 125.585938 324.148438 127.828125 325.140625 130.097656 326.082031 C 132.367188 327.019531 134.65625 327.90625 136.964844 328.730469 C 139.277344 329.558594 141.609375 330.328125 143.957031 331.042969 C 146.304688 331.753906 148.671875 332.40625 151.054688 333.003906 C 153.433594 333.601562 155.828125 334.140625 158.238281 334.617188 C 160.644531 335.097656 163.0625 335.515625 165.492188 335.875 C 167.917969 336.238281 170.355469 336.535156 172.796875 336.777344 C 175.242188 337.019531 177.6875 337.199219 180.140625 337.320312 C 182.589844 337.441406 185.046875 337.5 187.5 337.5 C 189.953125 337.5 192.410156 337.441406 194.859375 337.320312 C 197.3125 337.199219 199.757812 337.019531 202.203125 336.777344 C 204.644531 336.535156 207.082031 336.238281 209.507812 335.875 C 211.9375 335.515625 214.355469 335.097656 216.761719 334.617188 C 219.171875 334.140625 221.566406 333.601562 223.945312 333.003906 C 226.328125 332.40625 228.695312 331.753906 231.042969 331.042969 C 233.390625 330.328125 235.722656 329.558594 238.035156 328.730469 C 240.34375 327.90625 242.632812 327.019531 244.902344 326.082031 C 247.171875 325.140625 249.414062 324.148438 251.632812 323.097656 C 253.851562 322.046875 256.042969 320.945312 258.210938 319.789062 C 260.375 318.632812 262.507812 317.421875 264.617188 316.160156 C 266.722656 314.898438 268.792969 313.585938 270.835938 312.21875 C 272.875 310.855469 274.882812 309.445312 276.855469 307.980469 C 278.828125 306.519531 280.761719 305.007812 282.660156 303.453125 C 284.554688 301.894531 286.414062 300.292969 288.234375 298.644531 C 290.050781 296.992188 291.832031 295.300781 293.566406 293.566406 C 295.300781 291.832031 296.992188 290.050781 298.644531 288.234375 C 300.292969 286.414062 301.894531 284.554688 303.453125 282.660156 C 305.007812 280.761719 306.519531 278.828125 307.980469 276.855469 C 309.445312 274.882812 310.855469 272.875 312.21875 270.835938 C 313.585938 268.792969 314.898438 266.722656 316.160156 264.617188 C 317.421875 262.507812 318.632812 260.375 319.789062 258.210938 C 320.945312 256.042969 322.046875 253.851562 323.097656 251.632812 C 324.148438 249.414062 325.140625 247.171875 326.082031 244.902344 C 327.019531 242.632812 327.90625 240.34375 328.730469 238.035156 C 329.558594 235.722656 330.328125 233.390625 331.042969 231.042969 C 331.753906 228.695312 332.40625 226.328125 333.003906 223.945312 C 333.601562 221.566406 334.140625 219.171875 334.617188 216.761719 C 335.097656 214.355469 335.515625 211.9375 335.875 209.507812 C 336.238281 207.082031 336.535156 204.644531 336.777344 202.203125 C 337.019531 199.757812 337.199219 197.3125 337.320312 194.859375 C 337.441406 192.410156 337.5 189.953125 337.5 187.5 C 337.5 185.046875 337.4375 182.59375 337.316406 180.140625 C 337.195312 177.6875 337.011719 175.242188 336.769531 172.800781 C 336.53125 170.355469 336.226562 167.921875 335.867188 165.492188 C 335.507812 163.066406 335.085938 160.648438 334.605469 158.242188 C 334.125 155.835938 333.585938 153.441406 332.992188 151.058594 C 332.394531 148.679688 331.738281 146.3125 331.023438 143.964844 C 330.3125 141.617188 329.542969 139.285156 328.714844 136.976562 C 327.886719 134.664062 327.003906 132.375 326.0625 130.109375 C 325.121094 127.839844 324.128906 125.597656 323.078125 123.378906 C 322.027344 121.160156 320.925781 118.96875 319.765625 116.804688 C 318.609375 114.640625 317.398438 112.503906 316.136719 110.398438 C 314.875 108.296875 313.5625 106.222656 312.199219 104.179688 C 310.835938 102.140625 309.421875 100.136719 307.957031 98.164062 C 306.496094 96.191406 304.988281 94.257812 303.429688 92.359375 C 301.871094 90.464844 300.269531 88.605469 298.621094 86.785156 C 296.972656 84.96875 295.28125 83.191406 293.542969 81.457031 C 291.808594 79.71875 290.03125 78.027344 288.214844 76.378906 C 286.394531 74.730469 284.535156 73.128906 282.640625 71.570312 C 280.742188 70.011719 278.808594 68.503906 276.835938 67.042969 C 274.863281 65.578125 272.859375 64.164062 270.820312 62.800781 C 268.777344 61.4375 266.703125 60.125 264.601562 58.863281 C 262.496094 57.601562 260.359375 56.390625 258.195312 55.234375 C 256.03125 54.074219 253.839844 52.972656 251.621094 51.921875 C 249.402344 50.871094 247.160156 49.878906 244.890625 48.9375 C 242.625 47.996094 240.335938 47.113281 238.023438 46.285156 C 235.714844 45.457031 233.382812 44.6875 231.035156 43.976562 C 228.6875 43.261719 226.320312 42.605469 223.941406 42.007812 C 221.558594 41.414062 219.164062 40.875 216.757812 40.394531 C 214.351562 39.914062 211.933594 39.492188 209.507812 39.132812 C 207.078125 38.773438 204.644531 38.46875 202.199219 38.230469 C 199.757812 37.988281 197.3125 37.804688 194.859375 37.683594 C 192.40625 37.5625 189.953125 37.5 187.5 37.5 Z M 230.339844 252.546875 C 227.308594 254.890625 224.101562 256.953125 220.710938 258.730469 C 217.320312 260.507812 213.800781 261.976562 210.148438 263.132812 C 206.5 264.292969 202.777344 265.121094 198.984375 265.625 C 195.1875 266.125 191.375 266.289062 187.550781 266.121094 C 183.71875 266.292969 179.902344 266.136719 176.097656 265.640625 C 172.292969 265.148438 168.5625 264.328125 164.902344 263.179688 C 161.242188 262.035156 157.707031 260.578125 154.300781 258.8125 C 150.894531 257.046875 147.667969 255 144.621094 252.671875 C 143.296875 251.664062 142.039062 250.585938 140.84375 249.429688 C 139.644531 248.277344 138.519531 247.058594 137.464844 245.773438 C 136.410156 244.488281 135.433594 243.144531 134.539062 241.746094 C 133.640625 240.347656 132.828125 238.902344 132.097656 237.40625 C 131.367188 235.914062 130.726562 234.382812 130.179688 232.8125 C 129.628906 231.246094 129.171875 229.648438 128.804688 228.027344 C 128.441406 226.40625 128.171875 224.769531 128 223.113281 C 127.824219 221.460938 127.75 219.804688 127.769531 218.140625 C 127.683594 216.367188 127.71875 214.59375 127.875 212.824219 C 128.03125 211.054688 128.304688 209.304688 128.699219 207.570312 C 129.09375 205.839844 129.601562 204.140625 130.222656 202.476562 C 130.847656 200.8125 131.582031 199.199219 132.421875 197.636719 C 133.265625 196.070312 134.207031 194.570312 135.253906 193.136719 C 136.300781 191.699219 137.4375 190.339844 138.667969 189.058594 C 139.898438 187.777344 141.207031 186.582031 142.601562 185.476562 C 143.992188 184.375 145.453125 183.367188 146.980469 182.460938 C 145.90625 181.636719 144.890625 180.753906 143.921875 179.808594 C 142.957031 178.863281 142.050781 177.859375 141.207031 176.804688 C 140.359375 175.75 139.582031 174.648438 138.867188 173.5 C 138.15625 172.351562 137.511719 171.167969 136.941406 169.941406 C 136.371094 168.714844 135.878906 167.460938 135.457031 166.175781 C 135.039062 164.890625 134.695312 163.585938 134.433594 162.257812 C 134.171875 160.933594 133.988281 159.59375 133.886719 158.246094 C 133.78125 156.898438 133.761719 155.550781 133.820312 154.199219 C 133.8125 152.742188 133.890625 151.285156 134.054688 149.835938 C 134.21875 148.386719 134.46875 146.953125 134.800781 145.53125 C 135.132812 144.109375 135.546875 142.714844 136.046875 141.34375 C 136.542969 139.972656 137.121094 138.632812 137.773438 137.332031 C 138.429688 136.027344 139.15625 134.765625 139.960938 133.546875 C 140.765625 132.332031 141.636719 131.164062 142.578125 130.046875 C 143.515625 128.933594 144.519531 127.878906 145.585938 126.878906 C 146.648438 125.882812 147.769531 124.953125 148.945312 124.085938 C 151.699219 122.035156 154.609375 120.234375 157.675781 118.683594 C 160.738281 117.132812 163.914062 115.859375 167.199219 114.855469 C 170.484375 113.855469 173.832031 113.140625 177.242188 112.714844 C 180.648438 112.289062 184.070312 112.160156 187.5 112.324219 C 190.933594 112.164062 194.355469 112.296875 197.769531 112.726562 C 201.179688 113.152344 204.53125 113.871094 207.820312 114.875 C 211.105469 115.878906 214.285156 117.152344 217.355469 118.703125 C 220.421875 120.253906 223.335938 122.054688 226.097656 124.105469 C 227.273438 124.96875 228.398438 125.898438 229.46875 126.894531 C 230.535156 127.890625 231.542969 128.945312 232.488281 130.0625 C 233.433594 131.175781 234.308594 132.34375 235.113281 133.5625 C 235.921875 134.777344 236.652344 136.039062 237.3125 137.34375 C 237.96875 138.648438 238.550781 139.988281 239.050781 141.359375 C 239.550781 142.734375 239.96875 144.128906 240.300781 145.550781 C 240.636719 146.972656 240.886719 148.410156 241.054688 149.863281 C 241.21875 151.3125 241.300781 152.769531 241.292969 154.230469 C 241.355469 155.585938 241.332031 156.9375 241.230469 158.285156 C 241.128906 159.636719 240.945312 160.976562 240.679688 162.304688 C 240.417969 163.632812 240.074219 164.941406 239.652344 166.226562 C 239.230469 167.515625 238.734375 168.773438 238.160156 170 C 237.589844 171.226562 236.941406 172.414062 236.226562 173.5625 C 235.511719 174.714844 234.726562 175.816406 233.878906 176.871094 C 233.03125 177.925781 232.121094 178.925781 231.152344 179.871094 C 230.183594 180.816406 229.160156 181.703125 228.082031 182.523438 C 229.605469 183.429688 231.0625 184.4375 232.453125 185.539062 C 233.839844 186.644531 235.148438 187.835938 236.375 189.117188 C 237.601562 190.398438 238.738281 191.757812 239.78125 193.191406 C 240.824219 194.625 241.765625 196.125 242.605469 197.6875 C 243.445312 199.25 244.175781 200.859375 244.796875 202.523438 C 245.421875 204.183594 245.929688 205.878906 246.320312 207.609375 C 246.714844 209.339844 246.988281 211.085938 247.144531 212.855469 C 247.300781 214.621094 247.335938 216.390625 247.25 218.160156 C 247.261719 219.820312 247.175781 221.472656 246.996094 223.117188 C 246.816406 224.765625 246.539062 226.398438 246.171875 228.011719 C 245.800781 229.628906 245.335938 231.21875 244.78125 232.777344 C 244.230469 234.339844 243.585938 235.863281 242.855469 237.351562 C 242.121094 238.839844 241.308594 240.277344 240.410156 241.671875 C 239.511719 243.0625 238.535156 244.398438 237.480469 245.679688 C 236.425781 246.957031 235.304688 248.171875 234.109375 249.320312 C 232.914062 250.46875 231.65625 251.546875 230.339844 252.546875 Z M 230.339844 252.546875 " fill-opacity="1" fill-rule="evenodd"/></g></svg>