<svg xmlns="http://www.w3.org/2000/svg" xmlns:xlink="http://www.w3.org/1999/xlink" width="500" zoomAndPan="magnify" viewBox="0 0 375 374.999991" height="500" preserveAspectRatio="xMidYMid meet" version="1.0"><defs><clipPath id="dcbf6410fa"><path d="M 104.382812 91.984375 L 270.617188 91.984375 L 270.617188 283 L 104.382812 283 Z M 104.382812 91.984375 " clip-rule="nonzero"/></clipPath><clipPath id="a8e3eac4b5"><path d="M 37.5 37.5 L 337.5 37.5 L 337.5 337.5 L 37.5 337.5 Z M 37.5 37.5 " clip-rule="nonzero"/></clipPath></defs><g clip-path="url(#dcbf6410fa)"><path fill="#ffffff" d="M 104.382812 91.984375 L 270.789062 91.984375 L 270.789062 283 L 104.382812 283 Z M 104.382812 91.984375 " fill-opacity="1" fill-rule="nonzero"/></g><path fill="#004aad" d="M 187.5 190.210938 C 186.242188 190.152344 184.988281 190.222656 183.742188 190.414062 C 182.496094 190.609375 181.28125 190.925781 180.101562 191.359375 C 178.917969 191.796875 177.789062 192.347656 176.71875 193.011719 C 175.644531 193.675781 174.648438 194.4375 173.730469 195.300781 C 172.878906 196.128906 172.121094 197.039062 171.457031 198.023438 C 170.796875 199.011719 170.242188 200.054688 169.796875 201.160156 C 169.351562 202.261719 169.023438 203.398438 168.816406 204.566406 C 168.605469 205.738281 168.519531 206.917969 168.558594 208.105469 C 168.511719 209.3125 168.585938 210.511719 168.785156 211.699219 C 168.984375 212.890625 169.300781 214.046875 169.738281 215.171875 C 170.175781 216.296875 170.722656 217.367188 171.378906 218.378906 C 172.035156 219.390625 172.789062 220.324219 173.636719 221.183594 C 174.570312 222.046875 175.578125 222.808594 176.664062 223.472656 C 177.75 224.132812 178.886719 224.679688 180.082031 225.109375 C 181.277344 225.542969 182.503906 225.851562 183.761719 226.035156 C 185.019531 226.222656 186.28125 226.28125 187.550781 226.210938 C 188.816406 226.28125 190.074219 226.226562 191.324219 226.042969 C 192.578125 225.859375 193.796875 225.550781 194.988281 225.121094 C 196.179688 224.691406 197.3125 224.144531 198.394531 223.484375 C 199.472656 222.828125 200.476562 222.066406 201.402344 221.203125 C 202.25 220.34375 203 219.40625 203.65625 218.390625 C 204.308594 217.375 204.851562 216.304688 205.285156 215.179688 C 205.71875 214.054688 206.03125 212.894531 206.226562 211.703125 C 206.421875 210.511719 206.492188 209.3125 206.441406 208.105469 C 206.476562 206.921875 206.390625 205.75 206.1875 204.582031 C 205.980469 203.417969 205.660156 202.28125 205.226562 201.183594 C 204.789062 200.082031 204.246094 199.035156 203.597656 198.042969 C 202.949219 197.054688 202.207031 196.140625 201.371094 195.300781 C 200.449219 194.425781 199.449219 193.652344 198.371094 192.980469 C 197.292969 192.3125 196.15625 191.757812 194.960938 191.320312 C 193.769531 190.882812 192.546875 190.570312 191.289062 190.382812 C 190.03125 190.195312 188.769531 190.140625 187.5 190.210938 Z M 187.5 190.210938 " fill-opacity="1" fill-rule="evenodd"/><g clip-path="url(#a8e3eac4b5)"><path fill="#004aad" d="M 187.5 37.5 C 185.046875 37.5 182.589844 37.558594 180.140625 37.679688 C 177.6875 37.800781 175.242188 37.980469 172.796875 38.222656 C 170.355469 38.464844 167.917969 38.761719 165.492188 39.125 C 163.0625 39.484375 160.644531 39.902344 158.238281 40.382812 C 155.828125 40.859375 153.433594 41.398438 151.054688 41.996094 C 148.671875 42.589844 146.304688 43.246094 143.957031 43.957031 C 141.609375 44.671875 139.277344 45.441406 136.964844 46.269531 C 134.65625 47.09375 132.367188 47.980469 130.097656 48.917969 C 127.828125 49.859375 125.585938 50.851562 123.367188 51.902344 C 121.148438 52.953125 118.957031 54.054688 116.789062 55.210938 C 114.625 56.367188 112.488281 57.578125 110.382812 58.839844 C 108.277344 60.101562 106.207031 61.414062 104.164062 62.78125 C 102.125 64.144531 100.117188 65.554688 98.144531 67.019531 C 96.171875 68.480469 94.238281 69.992188 92.339844 71.546875 C 90.441406 73.105469 88.585938 74.707031 86.765625 76.355469 C 84.945312 78.007812 83.167969 79.699219 81.433594 81.433594 C 79.699219 83.167969 78.007812 84.945312 76.355469 86.765625 C 74.707031 88.585938 73.105469 90.445312 71.546875 92.339844 C 69.992188 94.238281 68.480469 96.171875 67.019531 98.144531 C 65.554688 100.117188 64.144531 102.125 62.78125 104.164062 C 61.414062 106.207031 60.101562 108.277344 58.839844 110.382812 C 57.578125 112.488281 56.367188 114.625 55.210938 116.789062 C 54.054688 118.957031 52.953125 121.148438 51.902344 123.367188 C 50.851562 125.585938 49.859375 127.828125 48.917969 130.097656 C 47.980469 132.367188 47.09375 134.65625 46.269531 136.964844 C 45.441406 139.277344 44.671875 141.609375 43.957031 143.957031 C 43.246094 146.304688 42.589844 148.671875 41.996094 151.054688 C 41.398438 153.433594 40.859375 155.828125 40.382812 158.238281 C 39.902344 160.644531 39.484375 163.0625 39.125 165.492188 C 38.761719 167.917969 38.464844 170.355469 38.222656 172.796875 C 37.980469 175.242188 37.800781 177.6875 37.679688 180.140625 C 37.558594 182.589844 37.5 185.046875 37.5 187.5 C 37.5 189.953125 37.558594 192.410156 37.679688 194.859375 C 37.800781 197.3125 37.980469 199.757812 38.222656 202.203125 C 38.464844 204.644531 38.761719 207.082031 39.125 209.507812 C 39.484375 211.9375 39.902344 214.355469 40.382812 216.761719 C 40.859375 219.171875 41.398438 221.566406 41.996094 223.945312 C 42.589844 226.328125 43.246094 228.695312 43.957031 231.042969 C 44.671875 233.390625 45.441406 235.722656 46.269531 238.035156 C 47.09375 240.34375 47.980469 242.632812 48.917969 244.902344 C 49.859375 247.171875 50.851562 249.414062 51.902344 251.632812 C 52.953125 253.851562 54.054688 256.042969 55.210938 258.210938 C 56.367188 260.375 57.578125 262.507812 58.839844 264.617188 C 60.101562 266.722656 61.414062 268.792969 62.78125 270.835938 C 64.144531 272.875 65.554688 274.882812 67.019531 276.855469 C 68.480469 278.828125 69.992188 280.761719 71.546875 282.660156 C 73.105469 284.554688 74.707031 286.414062 76.355469 288.234375 C 78.007812 290.050781 79.699219 291.832031 81.433594 293.566406 C 83.167969 295.300781 84.945312 296.992188 86.765625 298.644531 C 88.585938 300.292969 90.441406 301.894531 92.339844 303.453125 C 94.238281 305.007812 96.171875 306.519531 98.144531 307.980469 C 100.117188 309.445312 102.125 310.855469 104.164062 312.21875 C 106.207031 313.585938 108.277344 314.898438 110.382812 316.160156 C 112.488281 317.421875 114.625 318.632812 116.789062 319.789062 C 118.957031 320.945312 121.148438 322.046875 123.367188 323.097656 C 125.585938 324.148438 127.828125 325.140625 130.097656 326.082031 C 132.367188 327.019531 134.65625 327.90625 136.964844 328.730469 C 139.277344 329.558594 141.609375 330.328125 143.957031 331.042969 C 146.304688 331.753906 148.671875 332.40625 151.054688 333.003906 C 153.433594 333.601562 155.828125 334.140625 158.238281 334.617188 C 160.644531 335.097656 163.0625 335.515625 165.492188 335.875 C 167.917969 336.238281 170.355469 336.535156 172.796875 336.777344 C 175.242188 337.019531 177.6875 337.199219 180.140625 337.320312 C 182.589844 337.441406 185.046875 337.5 187.5 337.5 C 189.953125 337.5 192.410156 337.441406 194.859375 337.320312 C 197.3125 337.199219 199.757812 337.019531 202.203125 336.777344 C 204.644531 336.535156 207.082031 336.238281 209.507812 335.875 C 211.9375 335.515625 214.355469 335.097656 216.761719 334.617188 C 219.171875 334.140625 221.566406 333.601562 223.945312 333.003906 C 226.328125 332.40625 228.695312 331.753906 231.042969 331.042969 C 233.390625 330.328125 235.722656 329.558594 238.035156 328.730469 C 240.34375 327.90625 242.632812 327.019531 244.902344 326.082031 C 247.171875 325.140625 249.414062 324.148438 251.632812 323.097656 C 253.851562 322.046875 256.042969 320.945312 258.210938 319.789062 C 260.375 318.632812 262.507812 317.421875 264.617188 316.160156 C 266.722656 314.898438 268.792969 313.585938 270.835938 312.21875 C 272.875 310.855469 274.882812 309.445312 276.855469 307.980469 C 278.828125 306.519531 280.761719 305.007812 282.660156 303.453125 C 284.554688 301.894531 286.414062 300.292969 288.234375 298.644531 C 290.050781 296.992188 291.832031 295.300781 293.566406 293.566406 C 295.300781 291.832031 296.992188 290.050781 298.644531 288.234375 C 300.292969 286.414062 301.894531 284.554688 303.453125 282.660156 C 305.007812 280.761719 306.519531 278.828125 307.980469 276.855469 C 309.445312 274.882812 310.855469 272.875 312.21875 270.835938 C 313.585938 268.792969 314.898438 266.722656 316.160156 264.617188 C 317.421875 262.507812 318.632812 260.375 319.789062 258.210938 C 320.945312 256.042969 322.046875 253.851562 323.097656 251.632812 C 324.148438 249.414062 325.140625 247.171875 326.082031 244.902344 C 327.019531 242.632812 327.90625 240.34375 328.730469 238.035156 C 329.558594 235.722656 330.328125 233.390625 331.042969 231.042969 C 331.753906 228.695312 332.40625 226.328125 333.003906 223.945312 C 333.601562 221.566406 334.140625 219.171875 334.617188 216.761719 C 335.097656 214.355469 335.515625 211.9375 335.875 209.507812 C 336.238281 207.082031 336.535156 204.644531 336.777344 202.203125 C 337.019531 199.757812 337.199219 197.3125 337.320312 194.859375 C 337.441406 192.410156 337.5 189.953125 337.5 187.5 C 337.5 185.046875 337.4375 182.59375 337.316406 180.140625 C 337.195312 177.6875 337.011719 175.242188 336.769531 172.800781 C 336.53125 170.355469 336.226562 167.921875 335.867188 165.492188 C 335.507812 163.066406 335.085938 160.648438 334.605469 158.242188 C 334.125 155.835938 333.585938 153.441406 332.992188 151.058594 C 332.394531 148.679688 331.738281 146.3125 331.023438 143.964844 C 330.3125 141.617188 329.542969 139.285156 328.714844 136.976562 C 327.886719 134.664062 327.003906 132.375 326.0625 130.109375 C 325.121094 127.839844 324.128906 125.597656 323.078125 123.378906 C 322.027344 121.160156 320.925781 118.96875 319.765625 116.804688 C 318.609375 114.640625 317.398438 112.503906 316.136719 110.398438 C 314.875 108.296875 313.5625 106.222656 312.199219 104.179688 C 310.835938 102.140625 309.421875 100.136719 307.957031 98.164062 C 306.496094 96.191406 304.988281 94.257812 303.429688 92.359375 C 301.871094 90.464844 300.269531 88.605469 298.621094 86.785156 C 296.972656 84.96875 295.28125 83.191406 293.542969 81.457031 C 291.808594 79.71875 290.03125 78.027344 288.214844 76.378906 C 286.394531 74.730469 284.535156 73.128906 282.640625 71.570312 C 280.742188 70.011719 278.808594 68.503906 276.835938 67.042969 C 274.863281 65.578125 272.859375 64.164062 270.820312 62.800781 C 268.777344 61.4375 266.703125 60.125 264.601562 58.863281 C 262.496094 57.601562 260.359375 56.390625 258.195312 55.234375 C 256.03125 54.074219 253.839844 52.972656 251.621094 51.921875 C 249.402344 50.871094 247.160156 49.878906 244.890625 48.9375 C 242.625 47.996094 240.335938 47.113281 238.023438 46.285156 C 235.714844 45.457031 233.382812 44.6875 231.035156 43.976562 C 228.6875 43.261719 226.320312 42.605469 223.941406 42.007812 C 221.558594 41.414062 219.164062 40.875 216.757812 40.394531 C 214.351562 39.914062 211.933594 39.492188 209.507812 39.132812 C 207.078125 38.773438 204.644531 38.46875 202.199219 38.230469 C 199.757812 37.988281 197.3125 37.804688 194.859375 37.683594 C 192.40625 37.5625 189.953125 37.5 187.5 37.5 Z M 231.984375 249.632812 C 228.984375 252.378906 225.75 254.816406 222.28125 256.941406 C 218.8125 259.0625 215.171875 260.835938 211.359375 262.253906 C 207.546875 263.671875 203.632812 264.710938 199.621094 265.371094 C 195.605469 266.035156 191.566406 266.304688 187.5 266.183594 C 183.441406 266.304688 179.40625 266.039062 175.398438 265.386719 C 171.390625 264.734375 167.480469 263.707031 163.667969 262.304688 C 159.859375 260.898438 156.214844 259.144531 152.742188 257.042969 C 149.269531 254.9375 146.027344 252.523438 143.015625 249.796875 C 141.558594 248.496094 140.175781 247.121094 138.867188 245.671875 C 137.558594 244.21875 136.332031 242.703125 135.191406 241.121094 C 134.046875 239.535156 132.992188 237.894531 132.023438 236.199219 C 131.058594 234.5 130.1875 232.757812 129.410156 230.964844 C 128.632812 229.171875 127.953125 227.34375 127.375 225.476562 C 126.796875 223.613281 126.320312 221.71875 125.949219 219.804688 C 125.574219 217.886719 125.304688 215.953125 125.140625 214.007812 C 124.976562 212.0625 124.917969 210.113281 124.964844 208.160156 C 125.1875 202.085938 126.246094 196.164062 128.148438 190.390625 C 130.050781 184.617188 132.714844 179.222656 136.148438 174.207031 L 178.65625 107.046875 C 179.035156 106.449219 179.535156 105.980469 180.15625 105.636719 C 180.777344 105.296875 181.441406 105.125 182.152344 105.125 L 222.15625 105.125 C 222.90625 105.125 223.609375 105.316406 224.257812 105.699219 C 224.902344 106.082031 225.410156 106.605469 225.773438 107.265625 C 226.136719 107.921875 226.308594 108.628906 226.285156 109.382812 C 226.265625 110.132812 226.050781 110.828125 225.652344 111.464844 L 199.914062 152.109375 C 203.097656 152.550781 206.226562 153.242188 209.300781 154.179688 C 212.375 155.121094 215.355469 156.296875 218.242188 157.710938 C 221.128906 159.125 223.886719 160.757812 226.515625 162.609375 C 229.140625 164.460938 231.605469 166.511719 233.90625 168.753906 C 236.53125 171.300781 238.867188 174.085938 240.910156 177.113281 C 242.957031 180.140625 244.671875 183.34375 246.054688 186.726562 C 247.4375 190.109375 248.460938 193.601562 249.117188 197.195312 C 249.777344 200.789062 250.0625 204.414062 249.972656 208.066406 C 250.015625 210.015625 249.953125 211.957031 249.789062 213.898438 C 249.621094 215.84375 249.351562 217.769531 248.980469 219.679688 C 248.605469 221.59375 248.128906 223.480469 247.550781 225.34375 C 246.976562 227.203125 246.300781 229.027344 245.527344 230.816406 C 244.75 232.605469 243.882812 234.347656 242.921875 236.042969 C 241.960938 237.738281 240.910156 239.375 239.773438 240.957031 C 238.632812 242.539062 237.414062 244.054688 236.109375 245.503906 C 234.808594 246.953125 233.433594 248.328125 231.984375 249.632812 Z M 231.984375 249.632812 " fill-opacity="1" fill-rule="evenodd"/></g></svg>