<svg xmlns="http://www.w3.org/2000/svg" xmlns:xlink="http://www.w3.org/1999/xlink" width="500" zoomAndPan="magnify" viewBox="0 0 375 374.999991" height="500" preserveAspectRatio="xMidYMid meet" version="1.0"><defs><clipPath id="2382dfded3"><path d="M 104.382812 91.984375 L 270.617188 91.984375 L 270.617188 283 L 104.382812 283 Z M 104.382812 91.984375 " clip-rule="nonzero"/></clipPath><clipPath id="3c37511113"><path d="M 37.5 37.5 L 337.5 37.5 L 337.5 337.5 L 37.5 337.5 Z M 37.5 37.5 " clip-rule="nonzero"/></clipPath></defs><g clip-path="url(#2382dfded3)"><path fill="#ffffff" d="M 104.382812 91.984375 L 270.789062 91.984375 L 270.789062 283 L 104.382812 283 Z M 104.382812 91.984375 " fill-opacity="1" fill-rule="nonzero"/></g><path fill="#004aad" d="M 186.339844 143.183594 C 184.941406 143.109375 183.550781 143.171875 182.167969 143.378906 C 180.78125 143.582031 179.429688 143.921875 178.113281 144.398438 C 176.796875 144.875 175.539062 145.480469 174.34375 146.207031 C 173.148438 146.9375 172.039062 147.777344 171.011719 148.726562 C 170.070312 149.671875 169.238281 150.703125 168.511719 151.820312 C 167.785156 152.9375 167.183594 154.117188 166.699219 155.355469 C 166.21875 156.597656 165.867188 157.875 165.648438 159.191406 C 165.429688 160.503906 165.347656 161.828125 165.402344 163.160156 C 165.367188 164.464844 165.460938 165.761719 165.691406 167.046875 C 165.917969 168.335938 166.277344 169.585938 166.761719 170.796875 C 167.246094 172.011719 167.847656 173.164062 168.570312 174.253906 C 169.289062 175.34375 170.113281 176.347656 171.042969 177.269531 C 172.054688 178.230469 173.152344 179.082031 174.335938 179.824219 C 175.523438 180.5625 176.769531 181.171875 178.078125 181.660156 C 179.390625 182.144531 180.734375 182.492188 182.117188 182.699219 C 183.496094 182.910156 184.882812 182.980469 186.28125 182.90625 C 187.667969 182.96875 189.046875 182.890625 190.421875 182.675781 C 191.792969 182.457031 193.132812 182.105469 194.433594 181.621094 C 195.734375 181.132812 196.976562 180.523438 198.152344 179.785156 C 199.332031 179.050781 200.425781 178.203125 201.433594 177.25 C 202.371094 176.335938 203.207031 175.335938 203.941406 174.25 C 204.671875 173.164062 205.285156 172.015625 205.777344 170.804688 C 206.269531 169.589844 206.632812 168.339844 206.867188 167.054688 C 207.101562 165.765625 207.199219 164.46875 207.164062 163.160156 C 207.222656 161.824219 207.144531 160.5 206.929688 159.183594 C 206.714844 157.867188 206.371094 156.582031 205.890625 155.335938 C 205.410156 154.09375 204.8125 152.90625 204.089844 151.785156 C 203.367188 150.664062 202.535156 149.628906 201.601562 148.675781 C 200.578125 147.726562 199.472656 146.890625 198.28125 146.167969 C 197.09375 145.441406 195.84375 144.84375 194.53125 144.371094 C 193.21875 143.898438 191.875 143.5625 190.496094 143.363281 C 189.117188 143.164062 187.734375 143.101562 186.339844 143.183594 Z M 186.339844 143.183594 " fill-opacity="1" fill-rule="evenodd"/><g clip-path="url(#3c37511113)"><path fill="#004aad" d="M 187.5 37.5 C 185.046875 37.5 182.589844 37.558594 180.140625 37.679688 C 177.6875 37.800781 175.242188 37.980469 172.796875 38.222656 C 170.355469 38.464844 167.917969 38.761719 165.492188 39.125 C 163.0625 39.484375 160.644531 39.902344 158.238281 40.382812 C 155.828125 40.859375 153.433594 41.398438 151.054688 41.996094 C 148.671875 42.589844 146.304688 43.246094 143.957031 43.957031 C 141.609375 44.671875 139.277344 45.441406 136.964844 46.269531 C 134.65625 47.09375 132.367188 47.980469 130.097656 48.917969 C 127.828125 49.859375 125.585938 50.851562 123.367188 51.902344 C 121.148438 52.953125 118.957031 54.054688 116.789062 55.210938 C 114.625 56.367188 112.488281 57.578125 110.382812 58.839844 C 108.277344 60.101562 106.207031 61.414062 104.164062 62.78125 C 102.125 64.144531 100.117188 65.554688 98.144531 67.019531 C 96.171875 68.480469 94.238281 69.992188 92.339844 71.546875 C 90.441406 73.105469 88.585938 74.707031 86.765625 76.355469 C 84.945312 78.007812 83.167969 79.699219 81.433594 81.433594 C 79.699219 83.167969 78.007812 84.945312 76.355469 86.765625 C 74.707031 88.585938 73.105469 90.445312 71.546875 92.339844 C 69.992188 94.238281 68.480469 96.171875 67.019531 98.144531 C 65.554688 100.117188 64.144531 102.125 62.78125 104.164062 C 61.414062 106.207031 60.101562 108.277344 58.839844 110.382812 C 57.578125 112.488281 56.367188 114.625 55.210938 116.789062 C 54.054688 118.957031 52.953125 121.148438 51.902344 123.367188 C 50.851562 125.585938 49.859375 127.828125 48.917969 130.097656 C 47.980469 132.367188 47.09375 134.65625 46.269531 136.964844 C 45.441406 139.277344 44.671875 141.609375 43.957031 143.957031 C 43.246094 146.304688 42.589844 148.671875 41.996094 151.054688 C 41.398438 153.433594 40.859375 155.828125 40.382812 158.238281 C 39.902344 160.644531 39.484375 163.0625 39.125 165.492188 C 38.761719 167.917969 38.464844 170.355469 38.222656 172.796875 C 37.980469 175.242188 37.800781 177.6875 37.679688 180.140625 C 37.558594 182.589844 37.5 185.046875 37.5 187.5 C 37.5 189.953125 37.558594 192.410156 37.679688 194.859375 C 37.800781 197.3125 37.980469 199.757812 38.222656 202.203125 C 38.464844 204.644531 38.761719 207.082031 39.125 209.507812 C 39.484375 211.9375 39.902344 214.355469 40.382812 216.761719 C 40.859375 219.171875 41.398438 221.566406 41.996094 223.945312 C 42.589844 226.328125 43.246094 228.695312 43.957031 231.042969 C 44.671875 233.390625 45.441406 235.722656 46.269531 238.035156 C 47.09375 240.34375 47.980469 242.632812 48.917969 244.902344 C 49.859375 247.171875 50.851562 249.414062 51.902344 251.632812 C 52.953125 253.851562 54.054688 256.042969 55.210938 258.210938 C 56.367188 260.375 57.578125 262.507812 58.839844 264.617188 C 60.101562 266.722656 61.414062 268.792969 62.78125 270.835938 C 64.144531 272.875 65.554688 274.882812 67.019531 276.855469 C 68.480469 278.828125 69.992188 280.761719 71.546875 282.660156 C 73.105469 284.554688 74.707031 286.414062 76.355469 288.234375 C 78.007812 290.050781 79.699219 291.832031 81.433594 293.566406 C 83.167969 295.300781 84.945312 296.992188 86.765625 298.644531 C 88.585938 300.292969 90.441406 301.894531 92.339844 303.453125 C 94.238281 305.007812 96.171875 306.519531 98.144531 307.980469 C 100.117188 309.445312 102.125 310.855469 104.164062 312.21875 C 106.207031 313.585938 108.277344 314.898438 110.382812 316.160156 C 112.488281 317.421875 114.625 318.632812 116.789062 319.789062 C 118.957031 320.945312 121.148438 322.046875 123.367188 323.097656 C 125.585938 324.148438 127.828125 325.140625 130.097656 326.082031 C 132.367188 327.019531 134.65625 327.90625 136.964844 328.730469 C 139.277344 329.558594 141.609375 330.328125 143.957031 331.042969 C 146.304688 331.753906 148.671875 332.40625 151.054688 333.003906 C 153.433594 333.601562 155.828125 334.140625 158.238281 334.617188 C 160.644531 335.097656 163.0625 335.515625 165.492188 335.875 C 167.917969 336.238281 170.355469 336.535156 172.796875 336.777344 C 175.242188 337.019531 177.6875 337.199219 180.140625 337.320312 C 182.589844 337.441406 185.046875 337.5 187.5 337.5 C 189.953125 337.5 192.410156 337.441406 194.859375 337.320312 C 197.3125 337.199219 199.757812 337.019531 202.203125 336.777344 C 204.644531 336.535156 207.082031 336.238281 209.507812 335.875 C 211.9375 335.515625 214.355469 335.097656 216.761719 334.617188 C 219.171875 334.140625 221.566406 333.601562 223.945312 333.003906 C 226.328125 332.40625 228.695312 331.753906 231.042969 331.042969 C 233.390625 330.328125 235.722656 329.558594 238.035156 328.730469 C 240.34375 327.90625 242.632812 327.019531 244.902344 326.082031 C 247.171875 325.140625 249.414062 324.148438 251.632812 323.097656 C 253.851562 322.046875 256.042969 320.945312 258.210938 319.789062 C 260.375 318.632812 262.507812 317.421875 264.617188 316.160156 C 266.722656 314.898438 268.792969 313.585938 270.835938 312.21875 C 272.875 310.855469 274.882812 309.445312 276.855469 307.980469 C 278.828125 306.519531 280.761719 305.007812 282.660156 303.453125 C 284.554688 301.894531 286.414062 300.292969 288.234375 298.644531 C 290.050781 296.992188 291.832031 295.300781 293.566406 293.566406 C 295.300781 291.832031 296.992188 290.050781 298.644531 288.234375 C 300.292969 286.414062 301.894531 284.554688 303.453125 282.660156 C 305.007812 280.761719 306.519531 278.828125 307.980469 276.855469 C 309.445312 274.882812 310.855469 272.875 312.21875 270.835938 C 313.585938 268.792969 314.898438 266.722656 316.160156 264.617188 C 317.421875 262.507812 318.632812 260.375 319.789062 258.210938 C 320.945312 256.042969 322.046875 253.851562 323.097656 251.632812 C 324.148438 249.414062 325.140625 247.171875 326.082031 244.902344 C 327.019531 242.632812 327.90625 240.34375 328.730469 238.035156 C 329.558594 235.722656 330.328125 233.390625 331.042969 231.042969 C 331.753906 228.695312 332.40625 226.328125 333.003906 223.945312 C 333.601562 221.566406 334.140625 219.171875 334.617188 216.761719 C 335.097656 214.355469 335.515625 211.9375 335.875 209.507812 C 336.238281 207.082031 336.535156 204.644531 336.777344 202.203125 C 337.019531 199.757812 337.199219 197.3125 337.320312 194.859375 C 337.441406 192.410156 337.5 189.953125 337.5 187.5 C 337.5 185.046875 337.4375 182.59375 337.316406 180.140625 C 337.195312 177.6875 337.011719 175.242188 336.769531 172.800781 C 336.53125 170.355469 336.226562 167.921875 335.867188 165.492188 C 335.507812 163.066406 335.085938 160.648438 334.605469 158.242188 C 334.125 155.835938 333.585938 153.441406 332.992188 151.058594 C 332.394531 148.679688 331.738281 146.3125 331.023438 143.964844 C 330.3125 141.617188 329.542969 139.285156 328.714844 136.976562 C 327.886719 134.664062 327.003906 132.375 326.0625 130.109375 C 325.121094 127.839844 324.128906 125.597656 323.078125 123.378906 C 322.027344 121.160156 320.925781 118.96875 319.765625 116.804688 C 318.609375 114.640625 317.398438 112.503906 316.136719 110.398438 C 314.875 108.296875 313.5625 106.222656 312.199219 104.179688 C 310.835938 102.140625 309.421875 100.136719 307.957031 98.164062 C 306.496094 96.191406 304.988281 94.257812 303.429688 92.359375 C 301.871094 90.464844 300.269531 88.605469 298.621094 86.785156 C 296.972656 84.96875 295.28125 83.191406 293.542969 81.457031 C 291.808594 79.71875 290.03125 78.027344 288.214844 76.378906 C 286.394531 74.730469 284.535156 73.128906 282.640625 71.570312 C 280.742188 70.011719 278.808594 68.503906 276.835938 67.042969 C 274.863281 65.578125 272.859375 64.164062 270.820312 62.800781 C 268.777344 61.4375 266.703125 60.125 264.601562 58.863281 C 262.496094 57.601562 260.359375 56.390625 258.195312 55.234375 C 256.03125 54.074219 253.839844 52.972656 251.621094 51.921875 C 249.402344 50.871094 247.160156 49.878906 244.890625 48.9375 C 242.625 47.996094 240.335938 47.113281 238.023438 46.285156 C 235.714844 45.457031 233.382812 44.6875 231.035156 43.976562 C 228.6875 43.261719 226.320312 42.605469 223.941406 42.007812 C 221.558594 41.414062 219.164062 40.875 216.757812 40.394531 C 214.351562 39.914062 211.933594 39.492188 209.507812 39.132812 C 207.078125 38.773438 204.644531 38.46875 202.199219 38.230469 C 199.757812 37.988281 197.3125 37.804688 194.859375 37.683594 C 192.40625 37.5625 189.953125 37.5 187.5 37.5 Z M 241.757812 199.65625 L 195.660156 272.472656 C 195.28125 273.070312 194.78125 273.542969 194.160156 273.882812 C 193.539062 274.226562 192.875 274.398438 192.164062 274.398438 L 148.808594 274.398438 C 148.054688 274.398438 147.355469 274.203125 146.703125 273.820312 C 146.054688 273.4375 145.546875 272.914062 145.183594 272.253906 C 144.820312 271.59375 144.652344 270.886719 144.671875 270.132812 C 144.695312 269.378906 144.910156 268.683594 145.3125 268.042969 L 173.460938 223.5625 C 169.976562 223.101562 166.550781 222.367188 163.183594 221.359375 C 159.816406 220.351562 156.550781 219.082031 153.386719 217.550781 C 150.222656 216.019531 147.203125 214.246094 144.320312 212.226562 C 141.441406 210.210938 138.742188 207.980469 136.21875 205.53125 C 133.382812 202.792969 130.855469 199.789062 128.640625 196.523438 C 126.425781 193.257812 124.570312 189.800781 123.078125 186.152344 C 121.582031 182.5 120.476562 178.734375 119.765625 174.855469 C 119.054688 170.972656 118.75 167.0625 118.851562 163.117188 C 118.804688 161.019531 118.875 158.921875 119.054688 156.828125 C 119.238281 154.738281 119.53125 152.660156 119.933594 150.601562 C 120.339844 148.539062 120.855469 146.507812 121.480469 144.503906 C 122.105469 142.496094 122.835938 140.53125 123.671875 138.605469 C 124.507812 136.679688 125.445312 134.804688 126.484375 132.980469 C 127.523438 131.152344 128.660156 129.390625 129.890625 127.6875 C 131.121094 125.984375 132.4375 124.355469 133.84375 122.792969 C 135.25 121.234375 136.734375 119.753906 138.300781 118.355469 C 141.542969 115.398438 145.039062 112.78125 148.789062 110.5 C 152.539062 108.21875 156.472656 106.316406 160.589844 104.796875 C 164.707031 103.277344 168.933594 102.164062 173.261719 101.457031 C 177.59375 100.75 181.953125 100.46875 186.339844 100.601562 C 190.71875 100.46875 195.070312 100.75 199.394531 101.453125 C 203.71875 102.15625 207.933594 103.265625 212.042969 104.78125 C 216.15625 106.292969 220.082031 108.1875 223.828125 110.457031 C 227.574219 112.730469 231.066406 115.339844 234.308594 118.28125 C 235.878906 119.6875 237.363281 121.171875 238.769531 122.734375 C 240.179688 124.300781 241.496094 125.933594 242.726562 127.644531 C 243.957031 129.351562 245.089844 131.117188 246.128906 132.949219 C 247.167969 134.777344 248.101562 136.660156 248.9375 138.589844 C 249.773438 140.523438 250.5 142.492188 251.121094 144.503906 C 251.742188 146.511719 252.253906 148.550781 252.65625 150.617188 C 253.054688 152.679688 253.34375 154.761719 253.519531 156.859375 C 253.695312 158.957031 253.757812 161.054688 253.707031 163.160156 C 253.472656 169.683594 252.34375 176.046875 250.3125 182.25 C 248.28125 188.457031 245.429688 194.257812 241.757812 199.65625 Z M 241.757812 199.65625 " fill-opacity="1" fill-rule="evenodd"/></g></svg>