<svg xmlns="http://www.w3.org/2000/svg" xmlns:xlink="http://www.w3.org/1999/xlink" width="500" zoomAndPan="magnify" viewBox="0 0 375 374.999991" height="500" preserveAspectRatio="xMidYMid meet" version="1.0"><defs><clipPath id="63f3e4d94b"><path d="M 104.382812 91.984375 L 270.617188 91.984375 L 270.617188 283 L 104.382812 283 Z M 104.382812 91.984375 " clip-rule="nonzero"/></clipPath><clipPath id="a32217f36b"><path d="M 53.777344 53.777344 L 321.527344 53.777344 L 321.527344 321.527344 L 53.777344 321.527344 Z M 53.777344 53.777344 " clip-rule="nonzero"/></clipPath></defs><g clip-path="url(#63f3e4d94b)"><path fill="#000000" d="M 104.382812 91.984375 L 270.789062 91.984375 L 270.789062 283 L 104.382812 283 Z M 104.382812 91.984375 " fill-opacity="1" fill-rule="nonzero"/></g><g clip-path="url(#a32217f36b)"><path fill="#ffffff" d="M 187.652344 53.777344 C 185.460938 53.777344 183.273438 53.832031 181.082031 53.9375 C 178.894531 54.046875 176.710938 54.207031 174.53125 54.421875 C 172.351562 54.636719 170.175781 54.90625 168.007812 55.226562 C 165.839844 55.546875 163.683594 55.921875 161.535156 56.351562 C 159.386719 56.777344 157.25 57.257812 155.125 57.789062 C 153 58.320312 150.886719 58.90625 148.789062 59.542969 C 146.695312 60.179688 144.613281 60.863281 142.550781 61.601562 C 140.488281 62.339844 138.445312 63.128906 136.421875 63.96875 C 134.398438 64.804688 132.394531 65.695312 130.414062 66.632812 C 128.433594 67.566406 126.476562 68.550781 124.542969 69.585938 C 122.613281 70.617188 120.707031 71.699219 118.828125 72.824219 C 116.949219 73.949219 115.097656 75.121094 113.277344 76.339844 C 111.453125 77.558594 109.664062 78.816406 107.902344 80.125 C 106.144531 81.429688 104.417969 82.777344 102.722656 84.164062 C 101.03125 85.554688 99.371094 86.984375 97.746094 88.457031 C 96.125 89.929688 94.539062 91.4375 92.988281 92.988281 C 91.4375 94.539062 89.929688 96.125 88.457031 97.746094 C 86.984375 99.371094 85.554688 101.03125 84.164062 102.722656 C 82.777344 104.417969 81.429688 106.144531 80.125 107.902344 C 78.816406 109.664062 77.558594 111.453125 76.339844 113.277344 C 75.121094 115.097656 73.949219 116.949219 72.824219 118.828125 C 71.699219 120.707031 70.617188 122.613281 69.585938 124.542969 C 68.550781 126.476562 67.566406 128.433594 66.632812 130.414062 C 65.695312 132.394531 64.804688 134.398438 63.96875 136.421875 C 63.128906 138.445312 62.339844 140.488281 61.601562 142.550781 C 60.863281 144.613281 60.179688 146.695312 59.542969 148.789062 C 58.90625 150.886719 58.320312 153 57.789062 155.125 C 57.257812 157.25 56.777344 159.386719 56.351562 161.535156 C 55.921875 163.683594 55.546875 165.839844 55.226562 168.007812 C 54.90625 170.175781 54.636719 172.351562 54.421875 174.53125 C 54.207031 176.710938 54.046875 178.894531 53.9375 181.082031 C 53.832031 183.273438 53.777344 185.460938 53.777344 187.652344 C 53.777344 189.84375 53.832031 192.03125 53.9375 194.222656 C 54.046875 196.410156 54.207031 198.59375 54.421875 200.773438 C 54.636719 202.953125 54.90625 205.128906 55.226562 207.296875 C 55.546875 209.464844 55.921875 211.621094 56.351562 213.769531 C 56.777344 215.917969 57.257812 218.054688 57.789062 220.179688 C 58.320312 222.308594 58.90625 224.417969 59.542969 226.515625 C 60.179688 228.609375 60.863281 230.691406 61.601562 232.753906 C 62.339844 234.816406 63.128906 236.859375 63.96875 238.882812 C 64.804688 240.910156 65.695312 242.910156 66.632812 244.890625 C 67.566406 246.871094 68.550781 248.828125 69.585938 250.761719 C 70.617188 252.691406 71.699219 254.597656 72.824219 256.476562 C 73.949219 258.355469 75.121094 260.207031 76.339844 262.03125 C 77.558594 263.851562 78.816406 265.640625 80.121094 267.402344 C 81.429688 269.160156 82.777344 270.886719 84.164062 272.582031 C 85.554688 274.277344 86.984375 275.933594 88.457031 277.558594 C 89.929688 279.179688 91.4375 280.765625 92.988281 282.316406 C 94.539062 283.867188 96.125 285.375 97.746094 286.847656 C 99.371094 288.320312 101.03125 289.75 102.722656 291.140625 C 104.417969 292.527344 106.144531 293.875 107.902344 295.183594 C 109.664062 296.488281 111.453125 297.75 113.277344 298.964844 C 115.097656 300.183594 116.949219 301.355469 118.828125 302.480469 C 120.707031 303.605469 122.613281 304.6875 124.542969 305.71875 C 126.476562 306.753906 128.433594 307.738281 130.414062 308.675781 C 132.394531 309.609375 134.398438 310.5 136.421875 311.335938 C 138.445312 312.175781 140.488281 312.964844 142.550781 313.703125 C 144.613281 314.441406 146.695312 315.125 148.789062 315.761719 C 150.886719 316.398438 153 316.984375 155.125 317.515625 C 157.25 318.046875 159.386719 318.527344 161.535156 318.957031 C 163.683594 319.382812 165.839844 319.757812 168.007812 320.078125 C 170.175781 320.398438 172.351562 320.667969 174.53125 320.882812 C 176.710938 321.097656 178.894531 321.257812 181.082031 321.367188 C 183.273438 321.472656 185.460938 321.527344 187.652344 321.527344 C 189.84375 321.527344 192.03125 321.472656 194.222656 321.367188 C 196.410156 321.257812 198.59375 321.097656 200.773438 320.882812 C 202.953125 320.667969 205.128906 320.398438 207.296875 320.078125 C 209.464844 319.757812 211.621094 319.382812 213.769531 318.957031 C 215.917969 318.527344 218.054688 318.046875 220.179688 317.515625 C 222.308594 316.984375 224.417969 316.398438 226.515625 315.761719 C 228.609375 315.125 230.691406 314.441406 232.753906 313.703125 C 234.816406 312.964844 236.859375 312.175781 238.882812 311.335938 C 240.910156 310.5 242.910156 309.609375 244.890625 308.675781 C 246.871094 307.738281 248.828125 306.753906 250.761719 305.71875 C 252.691406 304.6875 254.597656 303.605469 256.476562 302.480469 C 258.355469 301.355469 260.207031 300.183594 262.03125 298.964844 C 263.851562 297.75 265.640625 296.488281 267.402344 295.183594 C 269.160156 293.875 270.886719 292.527344 272.582031 291.140625 C 274.277344 289.75 275.933594 288.320312 277.558594 286.847656 C 279.179688 285.375 280.765625 283.867188 282.316406 282.316406 C 283.867188 280.765625 285.375 279.179688 286.847656 277.558594 C 288.320312 275.933594 289.75 274.277344 291.140625 272.582031 C 292.527344 270.886719 293.875 269.160156 295.183594 267.402344 C 296.488281 265.640625 297.75 263.851562 298.964844 262.03125 C 300.183594 260.207031 301.355469 258.355469 302.480469 256.476562 C 303.605469 254.597656 304.6875 252.691406 305.71875 250.761719 C 306.753906 248.828125 307.738281 246.871094 308.675781 244.890625 C 309.609375 242.910156 310.5 240.910156 311.335938 238.882812 C 312.175781 236.859375 312.964844 234.816406 313.703125 232.753906 C 314.441406 230.691406 315.125 228.609375 315.761719 226.515625 C 316.398438 224.417969 316.984375 222.308594 317.515625 220.179688 C 318.046875 218.054688 318.527344 215.917969 318.957031 213.769531 C 319.382812 211.621094 319.757812 209.464844 320.078125 207.296875 C 320.398438 205.128906 320.667969 202.953125 320.882812 200.773438 C 321.097656 198.59375 321.257812 196.410156 321.367188 194.222656 C 321.472656 192.03125 321.527344 189.84375 321.527344 187.652344 C 321.527344 185.460938 321.472656 183.273438 321.363281 181.085938 C 321.253906 178.898438 321.09375 176.710938 320.878906 174.53125 C 320.660156 172.351562 320.390625 170.179688 320.070312 168.011719 C 319.746094 165.84375 319.371094 163.6875 318.945312 161.539062 C 318.515625 159.390625 318.035156 157.253906 317.503906 155.128906 C 316.96875 153.003906 316.386719 150.894531 315.75 148.796875 C 315.113281 146.703125 314.425781 144.621094 313.6875 142.558594 C 312.945312 140.496094 312.160156 138.453125 311.320312 136.429688 C 310.480469 134.40625 309.59375 132.40625 308.65625 130.425781 C 307.71875 128.445312 306.734375 126.488281 305.699219 124.558594 C 304.667969 122.625 303.585938 120.71875 302.460938 118.839844 C 301.335938 116.960938 300.164062 115.113281 298.945312 113.289062 C 297.726562 111.46875 296.46875 109.679688 295.160156 107.917969 C 293.855469 106.160156 292.507812 104.433594 291.121094 102.742188 C 289.730469 101.046875 288.300781 99.390625 286.828125 97.765625 C 285.355469 96.144531 283.847656 94.554688 282.296875 93.007812 C 280.75 91.457031 279.164062 89.949219 277.539062 88.476562 C 275.917969 87.003906 274.257812 85.574219 272.566406 84.183594 C 270.871094 82.796875 269.144531 81.449219 267.386719 80.144531 C 265.625 78.835938 263.835938 77.578125 262.015625 76.359375 C 260.191406 75.140625 258.34375 73.96875 256.464844 72.84375 C 254.585938 71.71875 252.679688 70.636719 250.746094 69.605469 C 248.816406 68.570312 246.859375 67.585938 244.878906 66.648438 C 242.898438 65.710938 240.898438 64.824219 238.875 63.984375 C 236.851562 63.148438 234.808594 62.359375 232.746094 61.621094 C 230.683594 60.878906 228.601562 60.191406 226.507812 59.554688 C 224.410156 58.921875 222.300781 58.335938 220.175781 57.800781 C 218.050781 57.269531 215.914062 56.789062 213.765625 56.359375 C 211.617188 55.933594 209.460938 55.558594 207.292969 55.234375 C 205.125 54.914062 202.953125 54.644531 200.773438 54.429688 C 198.59375 54.210938 196.410156 54.050781 194.21875 53.941406 C 192.03125 53.832031 189.84375 53.777344 187.652344 53.777344 Z M 228.101562 248.753906 C 225.554688 251.167969 222.796875 253.308594 219.832031 255.175781 C 216.863281 257.042969 213.742188 258.605469 210.464844 259.859375 C 207.191406 261.109375 203.824219 262.03125 200.367188 262.621094 C 196.910156 263.210938 193.429688 263.457031 189.921875 263.359375 C 186.289062 263.558594 182.671875 263.414062 179.066406 262.925781 C 175.460938 262.4375 171.933594 261.613281 168.484375 260.457031 C 165.03125 259.300781 161.722656 257.832031 158.550781 256.050781 C 155.378906 254.265625 152.402344 252.199219 149.621094 249.855469 C 147.265625 247.777344 145.101562 245.511719 143.132812 243.0625 C 141.164062 240.617188 139.417969 238.015625 137.894531 235.265625 C 136.371094 232.515625 135.097656 229.660156 134.066406 226.691406 C 133.035156 223.722656 132.265625 220.6875 131.757812 217.585938 C 131.683594 217.136719 131.6875 216.691406 131.777344 216.246094 C 131.867188 215.800781 132.035156 215.382812 132.277344 215 C 132.519531 214.617188 132.824219 214.289062 133.1875 214.015625 C 133.550781 213.742188 133.953125 213.546875 134.390625 213.421875 L 162.882812 205.277344 C 163.128906 205.210938 163.378906 205.167969 163.632812 205.152344 C 163.890625 205.136719 164.144531 205.144531 164.398438 205.183594 C 164.652344 205.21875 164.898438 205.28125 165.140625 205.371094 C 165.378906 205.457031 165.609375 205.570312 165.824219 205.707031 C 166.042969 205.84375 166.242188 206 166.425781 206.175781 C 166.613281 206.355469 166.777344 206.550781 166.921875 206.761719 C 167.0625 206.972656 167.183594 207.199219 167.28125 207.433594 C 167.378906 207.671875 167.449219 207.914062 167.496094 208.167969 C 167.972656 210.851562 168.839844 213.402344 170.101562 215.816406 C 171.363281 218.234375 172.957031 220.40625 174.882812 222.332031 C 175.710938 223.230469 176.621094 224.03125 177.613281 224.742188 C 178.609375 225.453125 179.664062 226.054688 180.78125 226.546875 C 181.898438 227.035156 183.054688 227.410156 184.25 227.660156 C 185.445312 227.914062 186.652344 228.042969 187.875 228.046875 C 190.21875 228.183594 192.496094 227.855469 194.707031 227.0625 C 196.914062 226.273438 198.882812 225.078125 200.605469 223.484375 C 201.324219 222.789062 201.964844 222.03125 202.53125 221.207031 C 203.097656 220.382812 203.578125 219.511719 203.972656 218.59375 C 204.367188 217.675781 204.664062 216.726562 204.871094 215.75 C 205.078125 214.773438 205.183594 213.785156 205.195312 212.785156 C 205.203125 211.785156 205.113281 210.796875 204.925781 209.8125 C 204.742188 208.832031 204.457031 207.878906 204.082031 206.953125 C 203.707031 206.027344 203.242188 205.148438 202.691406 204.3125 C 202.140625 203.480469 201.511719 202.710938 200.808594 202 C 199.992188 201.230469 199.105469 200.550781 198.148438 199.964844 C 197.195312 199.378906 196.1875 198.894531 195.132812 198.511719 C 194.078125 198.132812 192.996094 197.859375 191.882812 197.703125 C 190.773438 197.542969 189.660156 197.5 188.539062 197.570312 C 184.851562 197.441406 181.335938 198.160156 177.996094 199.71875 C 177.753906 199.84375 177.5 199.9375 177.234375 200.007812 C 176.96875 200.074219 176.703125 200.109375 176.429688 200.121094 C 176.15625 200.128906 175.886719 200.105469 175.621094 200.054688 C 175.351562 200 175.09375 199.921875 174.84375 199.8125 C 174.59375 199.703125 174.359375 199.570312 174.140625 199.40625 C 173.917969 199.246094 173.71875 199.0625 173.539062 198.859375 C 173.363281 198.652344 173.207031 198.429688 173.078125 198.191406 C 172.945312 197.953125 172.84375 197.703125 172.769531 197.4375 L 167.46875 178.789062 C 167.308594 178.21875 167.285156 177.644531 167.402344 177.0625 C 167.515625 176.480469 167.757812 175.957031 168.125 175.492188 L 185.363281 153.648438 L 139.640625 153.648438 C 139.152344 153.648438 138.679688 153.554688 138.230469 153.367188 C 137.777344 153.179688 137.378906 152.914062 137.03125 152.566406 C 136.683594 152.21875 136.417969 151.820312 136.230469 151.367188 C 136.042969 150.914062 135.949219 150.445312 135.949219 149.957031 L 135.949219 121.175781 C 135.949219 120.6875 136.042969 120.214844 136.230469 119.761719 C 136.417969 119.3125 136.683594 118.910156 137.03125 118.566406 C 137.378906 118.21875 137.777344 117.953125 138.230469 117.765625 C 138.679688 117.578125 139.152344 117.484375 139.640625 117.484375 L 235.265625 117.484375 C 235.753906 117.484375 236.226562 117.578125 236.679688 117.765625 C 237.132812 117.953125 237.53125 118.21875 237.878906 118.566406 C 238.222656 118.910156 238.492188 119.3125 238.679688 119.761719 C 238.863281 120.214844 238.957031 120.6875 238.957031 121.175781 L 238.957031 142.410156 C 238.960938 143.382812 238.632812 144.222656 237.972656 144.933594 L 214.28125 170.40625 C 218.078125 171.742188 221.632812 173.550781 224.945312 175.832031 C 228.261719 178.117188 231.21875 180.792969 233.816406 183.867188 C 235.464844 185.878906 236.917969 188.019531 238.179688 190.292969 C 239.441406 192.566406 240.488281 194.933594 241.320312 197.394531 C 242.15625 199.859375 242.761719 202.375 243.144531 204.945312 C 243.523438 207.519531 243.671875 210.101562 243.585938 212.699219 C 243.644531 216.082031 243.351562 219.433594 242.699219 222.753906 C 242.046875 226.070312 241.054688 229.285156 239.71875 232.394531 C 238.386719 235.5 236.738281 238.433594 234.78125 241.191406 C 232.824219 243.949219 230.597656 246.46875 228.101562 248.753906 Z M 228.101562 248.753906 " fill-opacity="1" fill-rule="evenodd"/></g></svg>