<svg xmlns="http://www.w3.org/2000/svg" xmlns:xlink="http://www.w3.org/1999/xlink" width="500" zoomAndPan="magnify" viewBox="0 0 375 374.999991" height="500" preserveAspectRatio="xMidYMid meet" version="1.0"><defs><clipPath id="21c57e72c7"><path d="M 104.382812 91.984375 L 270.617188 91.984375 L 270.617188 283 L 104.382812 283 Z M 104.382812 91.984375 " clip-rule="nonzero"/></clipPath><clipPath id="730113ba02"><path d="M 37.5 37.5 L 337.5 37.5 L 337.5 337.5 L 37.5 337.5 Z M 37.5 37.5 " clip-rule="nonzero"/></clipPath></defs><g clip-path="url(#21c57e72c7)"><path fill="#ffffff" d="M 104.382812 91.984375 L 270.789062 91.984375 L 270.789062 283 L 104.382812 283 Z M 104.382812 91.984375 " fill-opacity="1" fill-rule="nonzero"/></g><g clip-path="url(#730113ba02)"><path fill="#004b27" d="M 187.5 37.5 C 185.046875 37.5 182.589844 37.558594 180.140625 37.679688 C 177.6875 37.800781 175.242188 37.980469 172.796875 38.222656 C 170.355469 38.464844 167.917969 38.761719 165.492188 39.125 C 163.0625 39.484375 160.644531 39.902344 158.238281 40.382812 C 155.828125 40.859375 153.433594 41.398438 151.054688 41.996094 C 148.671875 42.589844 146.304688 43.246094 143.957031 43.957031 C 141.609375 44.671875 139.277344 45.441406 136.964844 46.269531 C 134.65625 47.09375 132.367188 47.980469 130.097656 48.917969 C 127.828125 49.859375 125.585938 50.851562 123.367188 51.902344 C 121.148438 52.953125 118.957031 54.054688 116.789062 55.210938 C 114.625 56.367188 112.488281 57.578125 110.382812 58.839844 C 108.277344 60.101562 106.207031 61.414062 104.164062 62.78125 C 102.125 64.144531 100.117188 65.554688 98.144531 67.019531 C 96.171875 68.480469 94.238281 69.992188 92.339844 71.546875 C 90.441406 73.105469 88.585938 74.707031 86.765625 76.355469 C 84.945312 78.007812 83.167969 79.699219 81.433594 81.433594 C 79.699219 83.167969 78.007812 84.945312 76.355469 86.765625 C 74.707031 88.585938 73.105469 90.445312 71.546875 92.339844 C 69.992188 94.238281 68.480469 96.171875 67.019531 98.144531 C 65.554688 100.117188 64.144531 102.125 62.78125 104.164062 C 61.414062 106.207031 60.101562 108.277344 58.839844 110.382812 C 57.578125 112.488281 56.367188 114.625 55.210938 116.789062 C 54.054688 118.957031 52.953125 121.148438 51.902344 123.367188 C 50.851562 125.585938 49.859375 127.828125 48.917969 130.097656 C 47.980469 132.367188 47.09375 134.65625 46.269531 136.964844 C 45.441406 139.277344 44.671875 141.609375 43.957031 143.957031 C 43.246094 146.304688 42.589844 148.671875 41.996094 151.054688 C 41.398438 153.433594 40.859375 155.828125 40.382812 158.238281 C 39.902344 160.644531 39.484375 163.0625 39.125 165.492188 C 38.761719 167.917969 38.464844 170.355469 38.222656 172.796875 C 37.980469 175.242188 37.800781 177.6875 37.679688 180.140625 C 37.558594 182.589844 37.5 185.046875 37.5 187.5 C 37.5 189.953125 37.558594 192.410156 37.679688 194.859375 C 37.800781 197.3125 37.980469 199.757812 38.222656 202.203125 C 38.464844 204.644531 38.761719 207.082031 39.125 209.507812 C 39.484375 211.9375 39.902344 214.355469 40.382812 216.761719 C 40.859375 219.171875 41.398438 221.566406 41.996094 223.945312 C 42.589844 226.328125 43.246094 228.695312 43.957031 231.042969 C 44.671875 233.390625 45.441406 235.722656 46.269531 238.035156 C 47.09375 240.34375 47.980469 242.632812 48.917969 244.902344 C 49.859375 247.171875 50.851562 249.414062 51.902344 251.632812 C 52.953125 253.851562 54.054688 256.042969 55.210938 258.210938 C 56.367188 260.375 57.578125 262.507812 58.839844 264.617188 C 60.101562 266.722656 61.414062 268.792969 62.78125 270.835938 C 64.144531 272.875 65.554688 274.882812 67.019531 276.855469 C 68.480469 278.828125 69.992188 280.761719 71.546875 282.660156 C 73.105469 284.554688 74.707031 286.414062 76.355469 288.234375 C 78.007812 290.050781 79.699219 291.832031 81.433594 293.566406 C 83.167969 295.300781 84.945312 296.992188 86.765625 298.644531 C 88.585938 300.292969 90.441406 301.894531 92.339844 303.453125 C 94.238281 305.007812 96.171875 306.519531 98.144531 307.980469 C 100.117188 309.445312 102.125 310.855469 104.164062 312.21875 C 106.207031 313.585938 108.277344 314.898438 110.382812 316.160156 C 112.488281 317.421875 114.625 318.632812 116.789062 319.789062 C 118.957031 320.945312 121.148438 322.046875 123.367188 323.097656 C 125.585938 324.148438 127.828125 325.140625 130.097656 326.082031 C 132.367188 327.019531 134.65625 327.90625 136.964844 328.730469 C 139.277344 329.558594 141.609375 330.328125 143.957031 331.042969 C 146.304688 331.753906 148.671875 332.40625 151.054688 333.003906 C 153.433594 333.601562 155.828125 334.140625 158.238281 334.617188 C 160.644531 335.097656 163.0625 335.515625 165.492188 335.875 C 167.917969 336.238281 170.355469 336.535156 172.796875 336.777344 C 175.242188 337.019531 177.6875 337.199219 180.140625 337.320312 C 182.589844 337.441406 185.046875 337.5 187.5 337.5 C 189.953125 337.5 192.410156 337.441406 194.859375 337.320312 C 197.3125 337.199219 199.757812 337.019531 202.203125 336.777344 C 204.644531 336.535156 207.082031 336.238281 209.507812 335.875 C 211.9375 335.515625 214.355469 335.097656 216.761719 334.617188 C 219.171875 334.140625 221.566406 333.601562 223.945312 333.003906 C 226.328125 332.40625 228.695312 331.753906 231.042969 331.042969 C 233.390625 330.328125 235.722656 329.558594 238.035156 328.730469 C 240.34375 327.90625 242.632812 327.019531 244.902344 326.082031 C 247.171875 325.140625 249.414062 324.148438 251.632812 323.097656 C 253.851562 322.046875 256.042969 320.945312 258.210938 319.789062 C 260.375 318.632812 262.507812 317.421875 264.617188 316.160156 C 266.722656 314.898438 268.792969 313.585938 270.835938 312.21875 C 272.875 310.855469 274.882812 309.445312 276.855469 307.980469 C 278.828125 306.519531 280.761719 305.007812 282.660156 303.453125 C 284.554688 301.894531 286.414062 300.292969 288.234375 298.644531 C 290.050781 296.992188 291.832031 295.300781 293.566406 293.566406 C 295.300781 291.832031 296.992188 290.050781 298.644531 288.234375 C 300.292969 286.414062 301.894531 284.554688 303.453125 282.660156 C 305.007812 280.761719 306.519531 278.828125 307.980469 276.855469 C 309.445312 274.882812 310.855469 272.875 312.21875 270.835938 C 313.585938 268.792969 314.898438 266.722656 316.160156 264.617188 C 317.421875 262.507812 318.632812 260.375 319.789062 258.210938 C 320.945312 256.042969 322.046875 253.851562 323.097656 251.632812 C 324.148438 249.414062 325.140625 247.171875 326.082031 244.902344 C 327.019531 242.632812 327.90625 240.34375 328.730469 238.035156 C 329.558594 235.722656 330.328125 233.390625 331.042969 231.042969 C 331.753906 228.695312 332.40625 226.328125 333.003906 223.945312 C 333.601562 221.566406 334.140625 219.171875 334.617188 216.761719 C 335.097656 214.355469 335.515625 211.9375 335.875 209.507812 C 336.238281 207.082031 336.535156 204.644531 336.777344 202.203125 C 337.019531 199.757812 337.199219 197.3125 337.320312 194.859375 C 337.441406 192.410156 337.5 189.953125 337.5 187.5 C 337.5 185.046875 337.4375 182.59375 337.316406 180.140625 C 337.195312 177.6875 337.011719 175.242188 336.769531 172.800781 C 336.53125 170.355469 336.226562 167.921875 335.867188 165.492188 C 335.507812 163.066406 335.085938 160.648438 334.605469 158.242188 C 334.125 155.835938 333.585938 153.441406 332.992188 151.058594 C 332.394531 148.679688 331.738281 146.3125 331.023438 143.964844 C 330.3125 141.617188 329.542969 139.285156 328.714844 136.976562 C 327.886719 134.664062 327.003906 132.375 326.0625 130.109375 C 325.121094 127.839844 324.128906 125.597656 323.078125 123.378906 C 322.027344 121.160156 320.925781 118.96875 319.765625 116.804688 C 318.609375 114.640625 317.398438 112.503906 316.136719 110.398438 C 314.875 108.296875 313.5625 106.222656 312.199219 104.179688 C 310.835938 102.140625 309.421875 100.136719 307.957031 98.164062 C 306.496094 96.191406 304.988281 94.257812 303.429688 92.359375 C 301.871094 90.464844 300.269531 88.605469 298.621094 86.785156 C 296.972656 84.96875 295.28125 83.191406 293.542969 81.457031 C 291.808594 79.71875 290.03125 78.027344 288.214844 76.378906 C 286.394531 74.730469 284.535156 73.128906 282.640625 71.570312 C 280.742188 70.011719 278.808594 68.503906 276.835938 67.042969 C 274.863281 65.578125 272.859375 64.164062 270.820312 62.800781 C 268.777344 61.4375 266.703125 60.125 264.601562 58.863281 C 262.496094 57.601562 260.359375 56.390625 258.195312 55.234375 C 256.03125 54.074219 253.839844 52.972656 251.621094 51.921875 C 249.402344 50.871094 247.160156 49.878906 244.890625 48.9375 C 242.625 47.996094 240.335938 47.113281 238.023438 46.285156 C 235.714844 45.457031 233.382812 44.6875 231.035156 43.976562 C 228.6875 43.261719 226.320312 42.605469 223.941406 42.007812 C 221.558594 41.414062 219.164062 40.875 216.757812 40.394531 C 214.351562 39.914062 211.933594 39.492188 209.507812 39.132812 C 207.078125 38.773438 204.644531 38.46875 202.199219 38.230469 C 199.757812 37.988281 197.3125 37.804688 194.859375 37.683594 C 192.40625 37.5625 189.953125 37.5 187.5 37.5 Z M 249.898438 233.015625 C 249.898438 233.289062 249.875 233.558594 249.820312 233.824219 C 249.765625 234.089844 249.6875 234.351562 249.585938 234.601562 C 249.480469 234.851562 249.355469 235.089844 249.203125 235.316406 C 249.050781 235.542969 248.878906 235.75 248.6875 235.941406 C 248.496094 236.136719 248.285156 236.308594 248.0625 236.457031 C 247.835938 236.609375 247.597656 236.734375 247.34375 236.839844 C 247.09375 236.945312 246.835938 237.023438 246.570312 237.074219 C 246.304688 237.128906 246.035156 237.15625 245.761719 237.15625 L 233.015625 237.15625 L 233.015625 258.578125 C 233.015625 258.851562 232.992188 259.121094 232.9375 259.386719 C 232.882812 259.652344 232.804688 259.910156 232.703125 260.164062 C 232.597656 260.414062 232.472656 260.652344 232.320312 260.878906 C 232.167969 261.105469 231.996094 261.3125 231.804688 261.503906 C 231.613281 261.699219 231.402344 261.867188 231.179688 262.019531 C 230.953125 262.171875 230.714844 262.296875 230.460938 262.402344 C 230.210938 262.507812 229.953125 262.585938 229.6875 262.636719 C 229.421875 262.691406 229.152344 262.71875 228.878906 262.71875 L 195.226562 262.71875 C 194.957031 262.71875 194.6875 262.691406 194.421875 262.636719 C 194.152344 262.585938 193.894531 262.507812 193.644531 262.402344 C 193.394531 262.296875 193.15625 262.171875 192.929688 262.019531 C 192.703125 261.867188 192.492188 261.699219 192.300781 261.503906 C 192.109375 261.3125 191.9375 261.105469 191.785156 260.878906 C 191.636719 260.652344 191.507812 260.414062 191.40625 260.164062 C 191.300781 259.910156 191.222656 259.652344 191.167969 259.386719 C 191.117188 259.121094 191.089844 258.851562 191.089844 258.578125 L 191.089844 237.15625 L 129.238281 237.15625 C 128.964844 237.15625 128.695312 237.128906 128.429688 237.074219 C 128.164062 237.023438 127.90625 236.945312 127.65625 236.839844 C 127.402344 236.734375 127.164062 236.609375 126.9375 236.457031 C 126.714844 236.308594 126.503906 236.136719 126.3125 235.941406 C 126.121094 235.75 125.949219 235.542969 125.796875 235.316406 C 125.644531 235.089844 125.519531 234.851562 125.414062 234.601562 C 125.3125 234.351562 125.234375 234.089844 125.179688 233.824219 C 125.125 233.558594 125.101562 233.289062 125.101562 233.015625 L 125.101562 208.601562 C 125.101562 207.9375 125.253906 207.3125 125.554688 206.71875 L 172.519531 114.578125 C 172.875 113.886719 173.382812 113.339844 174.042969 112.933594 C 174.707031 112.527344 175.425781 112.324219 176.203125 112.324219 L 212.265625 112.324219 C 212.617188 112.324219 212.964844 112.367188 213.308594 112.457031 C 213.648438 112.546875 213.972656 112.675781 214.28125 112.847656 C 214.589844 113.019531 214.871094 113.226562 215.125 113.46875 C 215.382812 113.714844 215.601562 113.984375 215.789062 114.285156 C 215.972656 114.585938 216.117188 114.90625 216.222656 115.242188 C 216.328125 115.578125 216.386719 115.925781 216.402344 116.277344 C 216.417969 116.628906 216.390625 116.976562 216.316406 117.324219 C 216.242188 117.667969 216.125 118 215.96875 118.3125 L 175.375 199.210938 L 191.089844 199.210938 L 191.089844 177.785156 C 191.089844 177.515625 191.117188 177.246094 191.167969 176.980469 C 191.222656 176.710938 191.300781 176.453125 191.40625 176.203125 C 191.507812 175.953125 191.636719 175.714844 191.785156 175.488281 C 191.9375 175.261719 192.109375 175.050781 192.300781 174.859375 C 192.492188 174.667969 192.703125 174.496094 192.929688 174.34375 C 193.15625 174.195312 193.394531 174.066406 193.644531 173.964844 C 193.894531 173.859375 194.152344 173.78125 194.421875 173.726562 C 194.6875 173.675781 194.957031 173.648438 195.226562 173.648438 L 228.878906 173.648438 C 229.152344 173.648438 229.421875 173.675781 229.6875 173.726562 C 229.953125 173.78125 230.210938 173.859375 230.460938 173.964844 C 230.714844 174.066406 230.953125 174.195312 231.179688 174.34375 C 231.402344 174.496094 231.613281 174.667969 231.804688 174.859375 C 231.996094 175.050781 232.167969 175.261719 232.320312 175.488281 C 232.472656 175.714844 232.597656 175.953125 232.703125 176.203125 C 232.804688 176.453125 232.882812 176.710938 232.9375 176.980469 C 232.992188 177.246094 233.015625 177.515625 233.015625 177.785156 L 233.015625 199.210938 L 245.730469 199.210938 C 246.003906 199.210938 246.273438 199.238281 246.539062 199.289062 C 246.804688 199.34375 247.0625 199.421875 247.316406 199.523438 C 247.566406 199.628906 247.804688 199.757812 248.03125 199.90625 C 248.253906 200.058594 248.464844 200.230469 248.65625 200.421875 C 248.847656 200.613281 249.019531 200.824219 249.171875 201.050781 C 249.324219 201.273438 249.449219 201.515625 249.554688 201.765625 C 249.65625 202.015625 249.738281 202.273438 249.789062 202.539062 C 249.84375 202.808594 249.867188 203.078125 249.867188 203.347656 Z M 249.898438 233.015625 " fill-opacity="1" fill-rule="evenodd"/></g></svg>