<svg xmlns="http://www.w3.org/2000/svg" xmlns:xlink="http://www.w3.org/1999/xlink" width="500" zoomAndPan="magnify" viewBox="0 0 375 374.999991" height="500" preserveAspectRatio="xMidYMid meet" version="1.0"><defs><clipPath id="0268ad4f1a"><path d="M 104.382812 91.984375 L 270.617188 91.984375 L 270.617188 283 L 104.382812 283 Z M 104.382812 91.984375 " clip-rule="nonzero"/></clipPath><clipPath id="0d5e21c3a2"><path d="M 37.5 37.5 L 337.5 37.5 L 337.5 337.5 L 37.5 337.5 Z M 37.5 37.5 " clip-rule="nonzero"/></clipPath></defs><g clip-path="url(#0268ad4f1a)"><path fill="#ffffff" d="M 104.382812 91.984375 L 270.789062 91.984375 L 270.789062 283 L 104.382812 283 Z M 104.382812 91.984375 " fill-opacity="1" fill-rule="nonzero"/></g><g clip-path="url(#0d5e21c3a2)"><path fill="#000000" d="M 187.5 37.5 C 185.046875 37.5 182.589844 37.558594 180.140625 37.679688 C 177.6875 37.800781 175.242188 37.980469 172.796875 38.222656 C 170.355469 38.464844 167.917969 38.761719 165.492188 39.125 C 163.0625 39.484375 160.644531 39.902344 158.238281 40.382812 C 155.828125 40.859375 153.433594 41.398438 151.054688 41.996094 C 148.671875 42.589844 146.304688 43.246094 143.957031 43.957031 C 141.609375 44.671875 139.277344 45.441406 136.964844 46.269531 C 134.65625 47.09375 132.367188 47.980469 130.097656 48.917969 C 127.828125 49.859375 125.585938 50.851562 123.367188 51.902344 C 121.148438 52.953125 118.957031 54.054688 116.789062 55.210938 C 114.625 56.367188 112.488281 57.578125 110.382812 58.839844 C 108.277344 60.101562 106.207031 61.414062 104.164062 62.78125 C 102.125 64.144531 100.117188 65.554688 98.144531 67.019531 C 96.171875 68.480469 94.238281 69.992188 92.339844 71.546875 C 90.441406 73.105469 88.585938 74.707031 86.765625 76.355469 C 84.945312 78.007812 83.167969 79.699219 81.433594 81.433594 C 79.699219 83.167969 78.007812 84.945312 76.355469 86.765625 C 74.707031 88.585938 73.105469 90.445312 71.546875 92.339844 C 69.992188 94.238281 68.480469 96.171875 67.019531 98.144531 C 65.554688 100.117188 64.144531 102.125 62.78125 104.164062 C 61.414062 106.207031 60.101562 108.277344 58.839844 110.382812 C 57.578125 112.488281 56.367188 114.625 55.210938 116.789062 C 54.054688 118.957031 52.953125 121.148438 51.902344 123.367188 C 50.851562 125.585938 49.859375 127.828125 48.917969 130.097656 C 47.980469 132.367188 47.09375 134.65625 46.269531 136.964844 C 45.441406 139.277344 44.671875 141.609375 43.957031 143.957031 C 43.246094 146.304688 42.589844 148.671875 41.996094 151.054688 C 41.398438 153.433594 40.859375 155.828125 40.382812 158.238281 C 39.902344 160.644531 39.484375 163.0625 39.125 165.492188 C 38.761719 167.917969 38.464844 170.355469 38.222656 172.796875 C 37.980469 175.242188 37.800781 177.6875 37.679688 180.140625 C 37.558594 182.589844 37.5 185.046875 37.5 187.5 C 37.5 189.953125 37.558594 192.410156 37.679688 194.859375 C 37.800781 197.3125 37.980469 199.757812 38.222656 202.203125 C 38.464844 204.644531 38.761719 207.082031 39.125 209.507812 C 39.484375 211.9375 39.902344 214.355469 40.382812 216.761719 C 40.859375 219.171875 41.398438 221.566406 41.996094 223.945312 C 42.589844 226.328125 43.246094 228.695312 43.957031 231.042969 C 44.671875 233.390625 45.441406 235.722656 46.269531 238.035156 C 47.09375 240.34375 47.980469 242.632812 48.917969 244.902344 C 49.859375 247.171875 50.851562 249.414062 51.902344 251.632812 C 52.953125 253.851562 54.054688 256.042969 55.210938 258.210938 C 56.367188 260.375 57.578125 262.507812 58.839844 264.617188 C 60.101562 266.722656 61.414062 268.792969 62.78125 270.835938 C 64.144531 272.875 65.554688 274.882812 67.019531 276.855469 C 68.480469 278.828125 69.992188 280.761719 71.546875 282.660156 C 73.105469 284.554688 74.707031 286.414062 76.355469 288.234375 C 78.007812 290.050781 79.699219 291.832031 81.433594 293.566406 C 83.167969 295.300781 84.945312 296.992188 86.765625 298.644531 C 88.585938 300.292969 90.441406 301.894531 92.339844 303.453125 C 94.238281 305.007812 96.171875 306.519531 98.144531 307.980469 C 100.117188 309.445312 102.125 310.855469 104.164062 312.21875 C 106.207031 313.585938 108.277344 314.898438 110.382812 316.160156 C 112.488281 317.421875 114.625 318.632812 116.789062 319.789062 C 118.957031 320.945312 121.148438 322.046875 123.367188 323.097656 C 125.585938 324.148438 127.828125 325.140625 130.097656 326.082031 C 132.367188 327.019531 134.65625 327.90625 136.964844 328.730469 C 139.277344 329.558594 141.609375 330.328125 143.957031 331.042969 C 146.304688 331.753906 148.671875 332.40625 151.054688 333.003906 C 153.433594 333.601562 155.828125 334.140625 158.238281 334.617188 C 160.644531 335.097656 163.0625 335.515625 165.492188 335.875 C 167.917969 336.238281 170.355469 336.535156 172.796875 336.777344 C 175.242188 337.019531 177.6875 337.199219 180.140625 337.320312 C 182.589844 337.441406 185.046875 337.5 187.5 337.5 C 189.953125 337.5 192.410156 337.441406 194.859375 337.320312 C 197.3125 337.199219 199.757812 337.019531 202.203125 336.777344 C 204.644531 336.535156 207.082031 336.238281 209.507812 335.875 C 211.9375 335.515625 214.355469 335.097656 216.761719 334.617188 C 219.171875 334.140625 221.566406 333.601562 223.945312 333.003906 C 226.328125 332.40625 228.695312 331.753906 231.042969 331.042969 C 233.390625 330.328125 235.722656 329.558594 238.035156 328.730469 C 240.34375 327.90625 242.632812 327.019531 244.902344 326.082031 C 247.171875 325.140625 249.414062 324.148438 251.632812 323.097656 C 253.851562 322.046875 256.042969 320.945312 258.210938 319.789062 C 260.375 318.632812 262.507812 317.421875 264.617188 316.160156 C 266.722656 314.898438 268.792969 313.585938 270.835938 312.21875 C 272.875 310.855469 274.882812 309.445312 276.855469 307.980469 C 278.828125 306.519531 280.761719 305.007812 282.660156 303.453125 C 284.554688 301.894531 286.414062 300.292969 288.234375 298.644531 C 290.050781 296.992188 291.832031 295.300781 293.566406 293.566406 C 295.300781 291.832031 296.992188 290.050781 298.644531 288.234375 C 300.292969 286.414062 301.894531 284.554688 303.453125 282.660156 C 305.007812 280.761719 306.519531 278.828125 307.980469 276.855469 C 309.445312 274.882812 310.855469 272.875 312.21875 270.835938 C 313.585938 268.792969 314.898438 266.722656 316.160156 264.617188 C 317.421875 262.507812 318.632812 260.375 319.789062 258.210938 C 320.945312 256.042969 322.046875 253.851562 323.097656 251.632812 C 324.148438 249.414062 325.140625 247.171875 326.082031 244.902344 C 327.019531 242.632812 327.90625 240.34375 328.730469 238.035156 C 329.558594 235.722656 330.328125 233.390625 331.042969 231.042969 C 331.753906 228.695312 332.40625 226.328125 333.003906 223.945312 C 333.601562 221.566406 334.140625 219.171875 334.617188 216.761719 C 335.097656 214.355469 335.515625 211.9375 335.875 209.507812 C 336.238281 207.082031 336.535156 204.644531 336.777344 202.203125 C 337.019531 199.757812 337.199219 197.3125 337.320312 194.859375 C 337.441406 192.410156 337.5 189.953125 337.5 187.5 C 337.5 185.046875 337.4375 182.59375 337.316406 180.140625 C 337.195312 177.6875 337.011719 175.242188 336.769531 172.800781 C 336.53125 170.355469 336.226562 167.921875 335.867188 165.492188 C 335.507812 163.066406 335.085938 160.648438 334.605469 158.242188 C 334.125 155.835938 333.585938 153.441406 332.992188 151.058594 C 332.394531 148.679688 331.738281 146.3125 331.023438 143.964844 C 330.3125 141.617188 329.542969 139.285156 328.714844 136.976562 C 327.886719 134.664062 327.003906 132.375 326.0625 130.109375 C 325.121094 127.839844 324.128906 125.597656 323.078125 123.378906 C 322.027344 121.160156 320.925781 118.96875 319.765625 116.804688 C 318.609375 114.640625 317.398438 112.503906 316.136719 110.398438 C 314.875 108.296875 313.5625 106.222656 312.199219 104.179688 C 310.835938 102.140625 309.421875 100.136719 307.957031 98.164062 C 306.496094 96.191406 304.988281 94.257812 303.429688 92.359375 C 301.871094 90.464844 300.269531 88.605469 298.621094 86.785156 C 296.972656 84.96875 295.28125 83.191406 293.542969 81.457031 C 291.808594 79.71875 290.03125 78.027344 288.214844 76.378906 C 286.394531 74.730469 284.535156 73.128906 282.640625 71.570312 C 280.742188 70.011719 278.808594 68.503906 276.835938 67.042969 C 274.863281 65.578125 272.859375 64.164062 270.820312 62.800781 C 268.777344 61.4375 266.703125 60.125 264.601562 58.863281 C 262.496094 57.601562 260.359375 56.390625 258.195312 55.234375 C 256.03125 54.074219 253.839844 52.972656 251.621094 51.921875 C 249.402344 50.871094 247.160156 49.878906 244.890625 48.9375 C 242.625 47.996094 240.335938 47.113281 238.023438 46.285156 C 235.714844 45.457031 233.382812 44.6875 231.035156 43.976562 C 228.6875 43.261719 226.320312 42.605469 223.941406 42.007812 C 221.558594 41.414062 219.164062 40.875 216.757812 40.394531 C 214.351562 39.914062 211.933594 39.492188 209.507812 39.132812 C 207.078125 38.773438 204.644531 38.46875 202.199219 38.230469 C 199.757812 37.988281 197.3125 37.804688 194.859375 37.683594 C 192.40625 37.5625 189.953125 37.5 187.5 37.5 Z M 228.320312 247.925781 C 225.730469 250.371094 222.929688 252.542969 219.910156 254.4375 C 216.890625 256.332031 213.71875 257.910156 210.386719 259.175781 C 207.054688 260.441406 203.632812 261.371094 200.121094 261.957031 C 196.605469 262.546875 193.066406 262.785156 189.507812 262.675781 C 186.082031 262.824219 182.671875 262.675781 179.269531 262.238281 C 175.871094 261.800781 172.535156 261.074219 169.257812 260.0625 C 165.984375 259.050781 162.820312 257.769531 159.765625 256.210938 C 156.710938 254.65625 153.808594 252.851562 151.066406 250.800781 C 148.6875 248.960938 146.472656 246.945312 144.417969 244.75 C 142.359375 242.558594 140.492188 240.214844 138.8125 237.722656 C 137.132812 235.230469 135.660156 232.621094 134.394531 229.894531 C 133.128906 227.164062 132.089844 224.355469 131.277344 221.460938 C 130.976562 220.375 131.101562 219.34375 131.648438 218.359375 C 132.210938 217.363281 133.039062 216.710938 134.140625 216.402344 L 163.367188 208.191406 C 163.871094 208.046875 164.382812 208.003906 164.90625 208.058594 C 165.425781 208.109375 165.921875 208.257812 166.386719 208.5 C 166.851562 208.738281 167.257812 209.058594 167.601562 209.453125 C 167.945312 209.847656 168.207031 210.292969 168.382812 210.785156 C 169.136719 212.976562 170.171875 215.027344 171.484375 216.9375 C 172.796875 218.847656 174.34375 220.542969 176.121094 222.03125 C 176.949219 222.71875 177.828125 223.328125 178.765625 223.863281 C 179.699219 224.394531 180.671875 224.84375 181.6875 225.207031 C 182.699219 225.570312 183.738281 225.839844 184.796875 226.019531 C 185.859375 226.199219 186.929688 226.289062 188.003906 226.28125 C 189.082031 226.273438 190.148438 226.171875 191.207031 225.980469 C 192.265625 225.785156 193.296875 225.5 194.308594 225.125 C 195.316406 224.75 196.285156 224.289062 197.210938 223.742188 C 198.140625 223.195312 199.011719 222.574219 199.832031 221.875 C 200.535156 221.125 201.160156 220.316406 201.710938 219.449219 C 202.261719 218.578125 202.726562 217.667969 203.109375 216.710938 C 203.488281 215.757812 203.777344 214.773438 203.976562 213.765625 C 204.171875 212.757812 204.273438 211.738281 204.277344 210.710938 C 204.285156 209.679688 204.195312 208.660156 204.011719 207.648438 C 203.828125 206.636719 203.550781 205.652344 203.179688 204.691406 C 202.8125 203.734375 202.355469 202.816406 201.816406 201.941406 C 201.277344 201.066406 200.660156 200.25 199.964844 199.488281 C 198.199219 197.941406 196.199219 196.796875 193.972656 196.054688 C 191.746094 195.3125 189.460938 195.027344 187.117188 195.207031 C 183.925781 195.101562 180.796875 195.492188 177.730469 196.378906 C 174.664062 197.261719 171.804688 198.59375 169.160156 200.378906 C 168.640625 200.742188 168.070312 200.976562 167.445312 201.078125 C 166.820312 201.179688 166.207031 201.140625 165.601562 200.957031 L 139.820312 193.324219 C 139.363281 193.1875 138.945312 192.980469 138.558594 192.699219 C 138.175781 192.421875 137.847656 192.085938 137.578125 191.691406 C 137.3125 191.296875 137.117188 190.871094 136.996094 190.410156 C 136.875 189.953125 136.832031 189.484375 136.871094 189.011719 L 142.695312 118.542969 C 142.738281 118.023438 142.875 117.527344 143.101562 117.058594 C 143.328125 116.589844 143.636719 116.179688 144.019531 115.828125 C 144.402344 115.472656 144.839844 115.203125 145.324219 115.015625 C 145.808594 114.828125 146.3125 114.734375 146.835938 114.734375 L 233.535156 114.734375 C 233.804688 114.734375 234.074219 114.761719 234.339844 114.8125 C 234.609375 114.867188 234.867188 114.945312 235.117188 115.050781 C 235.367188 115.152344 235.609375 115.28125 235.832031 115.433594 C 236.058594 115.582031 236.269531 115.753906 236.460938 115.945312 C 236.652344 116.136719 236.824219 116.347656 236.976562 116.574219 C 237.125 116.800781 237.253906 117.039062 237.355469 117.289062 C 237.460938 117.539062 237.539062 117.796875 237.59375 118.066406 C 237.644531 118.332031 237.671875 118.601562 237.671875 118.871094 L 237.671875 147.910156 C 237.671875 148.183594 237.644531 148.449219 237.59375 148.71875 C 237.539062 148.984375 237.460938 149.242188 237.355469 149.492188 C 237.253906 149.746094 237.125 149.984375 236.976562 150.210938 C 236.824219 150.433594 236.652344 150.644531 236.460938 150.835938 C 236.269531 151.027344 236.058594 151.199219 235.832031 151.351562 C 235.609375 151.5 235.367188 151.628906 235.117188 151.734375 C 234.867188 151.835938 234.609375 151.914062 234.339844 151.96875 C 234.074219 152.023438 233.804688 152.046875 233.535156 152.046875 L 179.410156 152.046875 L 178.59375 163.34375 C 183.84375 162.109375 189.167969 161.507812 194.566406 161.535156 C 197.851562 161.445312 201.113281 161.695312 204.351562 162.285156 C 207.585938 162.878906 210.726562 163.796875 213.769531 165.042969 C 216.8125 166.289062 219.695312 167.839844 222.414062 169.6875 C 225.132812 171.535156 227.632812 173.644531 229.914062 176.015625 C 232.199219 178.339844 234.226562 180.863281 236.003906 183.59375 C 237.78125 186.324219 239.269531 189.203125 240.46875 192.230469 C 241.667969 195.257812 242.554688 198.375 243.128906 201.578125 C 243.703125 204.785156 243.953125 208.015625 243.878906 211.273438 C 243.945312 214.703125 243.652344 218.101562 243 221.46875 C 242.347656 224.835938 241.351562 228.101562 240.011719 231.257812 C 238.671875 234.417969 237.015625 237.398438 235.046875 240.207031 C 233.074219 243.015625 230.832031 245.589844 228.320312 247.925781 Z M 228.320312 247.925781 " fill-opacity="1" fill-rule="evenodd"/></g></svg>