<svg xmlns="http://www.w3.org/2000/svg" xmlns:xlink="http://www.w3.org/1999/xlink" width="500" zoomAndPan="magnify" viewBox="0 0 375 374.999991" height="500" preserveAspectRatio="xMidYMid meet" version="1.0"><defs><clipPath id="cd99853c36"><path d="M 104.382812 91.984375 L 270.617188 91.984375 L 270.617188 283 L 104.382812 283 Z M 104.382812 91.984375 " clip-rule="nonzero"/></clipPath><clipPath id="3bb6185135"><path d="M 37.5 37.5 L 337.5 37.5 L 337.5 337.5 L 37.5 337.5 Z M 37.5 37.5 " clip-rule="nonzero"/></clipPath></defs><g clip-path="url(#cd99853c36)"><path fill="#ffffff" d="M 104.382812 91.984375 L 270.789062 91.984375 L 270.789062 283 L 104.382812 283 Z M 104.382812 91.984375 " fill-opacity="1" fill-rule="nonzero"/></g><g clip-path="url(#3bb6185135)"><path fill="#004aad" d="M 187.5 37.5 C 185.046875 37.5 182.589844 37.558594 180.140625 37.679688 C 177.6875 37.800781 175.242188 37.980469 172.796875 38.222656 C 170.355469 38.464844 167.917969 38.761719 165.492188 39.125 C 163.0625 39.484375 160.644531 39.902344 158.238281 40.382812 C 155.828125 40.859375 153.433594 41.398438 151.054688 41.996094 C 148.671875 42.589844 146.304688 43.246094 143.957031 43.957031 C 141.609375 44.671875 139.277344 45.441406 136.964844 46.269531 C 134.65625 47.09375 132.367188 47.980469 130.097656 48.917969 C 127.828125 49.859375 125.585938 50.851562 123.367188 51.902344 C 121.148438 52.953125 118.957031 54.054688 116.789062 55.210938 C 114.625 56.367188 112.488281 57.578125 110.382812 58.839844 C 108.277344 60.101562 106.207031 61.414062 104.164062 62.78125 C 102.125 64.144531 100.117188 65.554688 98.144531 67.019531 C 96.171875 68.480469 94.238281 69.992188 92.339844 71.546875 C 90.441406 73.105469 88.585938 74.707031 86.765625 76.355469 C 84.945312 78.007812 83.167969 79.699219 81.433594 81.433594 C 79.699219 83.167969 78.007812 84.945312 76.355469 86.765625 C 74.707031 88.585938 73.105469 90.445312 71.546875 92.339844 C 69.992188 94.238281 68.480469 96.171875 67.019531 98.144531 C 65.554688 100.117188 64.144531 102.125 62.78125 104.164062 C 61.414062 106.207031 60.101562 108.277344 58.839844 110.382812 C 57.578125 112.488281 56.367188 114.625 55.210938 116.789062 C 54.054688 118.957031 52.953125 121.148438 51.902344 123.367188 C 50.851562 125.585938 49.859375 127.828125 48.917969 130.097656 C 47.980469 132.367188 47.09375 134.65625 46.269531 136.964844 C 45.441406 139.277344 44.671875 141.609375 43.957031 143.957031 C 43.246094 146.304688 42.589844 148.671875 41.996094 151.054688 C 41.398438 153.433594 40.859375 155.828125 40.382812 158.238281 C 39.902344 160.644531 39.484375 163.0625 39.125 165.492188 C 38.761719 167.917969 38.464844 170.355469 38.222656 172.796875 C 37.980469 175.242188 37.800781 177.6875 37.679688 180.140625 C 37.558594 182.589844 37.5 185.046875 37.5 187.5 C 37.5 189.953125 37.558594 192.410156 37.679688 194.859375 C 37.800781 197.3125 37.980469 199.757812 38.222656 202.203125 C 38.464844 204.644531 38.761719 207.082031 39.125 209.507812 C 39.484375 211.9375 39.902344 214.355469 40.382812 216.761719 C 40.859375 219.171875 41.398438 221.566406 41.996094 223.945312 C 42.589844 226.328125 43.246094 228.695312 43.957031 231.042969 C 44.671875 233.390625 45.441406 235.722656 46.269531 238.035156 C 47.09375 240.34375 47.980469 242.632812 48.917969 244.902344 C 49.859375 247.171875 50.851562 249.414062 51.902344 251.632812 C 52.953125 253.851562 54.054688 256.042969 55.210938 258.210938 C 56.367188 260.375 57.578125 262.507812 58.839844 264.617188 C 60.101562 266.722656 61.414062 268.792969 62.78125 270.835938 C 64.144531 272.875 65.554688 274.882812 67.019531 276.855469 C 68.480469 278.828125 69.992188 280.761719 71.546875 282.660156 C 73.105469 284.554688 74.707031 286.414062 76.355469 288.234375 C 78.007812 290.050781 79.699219 291.832031 81.433594 293.566406 C 83.167969 295.300781 84.945312 296.992188 86.765625 298.644531 C 88.585938 300.292969 90.441406 301.894531 92.339844 303.453125 C 94.238281 305.007812 96.171875 306.519531 98.144531 307.980469 C 100.117188 309.445312 102.125 310.855469 104.164062 312.21875 C 106.207031 313.585938 108.277344 314.898438 110.382812 316.160156 C 112.488281 317.421875 114.625 318.632812 116.789062 319.789062 C 118.957031 320.945312 121.148438 322.046875 123.367188 323.097656 C 125.585938 324.148438 127.828125 325.140625 130.097656 326.082031 C 132.367188 327.019531 134.65625 327.90625 136.964844 328.730469 C 139.277344 329.558594 141.609375 330.328125 143.957031 331.042969 C 146.304688 331.753906 148.671875 332.40625 151.054688 333.003906 C 153.433594 333.601562 155.828125 334.140625 158.238281 334.617188 C 160.644531 335.097656 163.0625 335.515625 165.492188 335.875 C 167.917969 336.238281 170.355469 336.535156 172.796875 336.777344 C 175.242188 337.019531 177.6875 337.199219 180.140625 337.320312 C 182.589844 337.441406 185.046875 337.5 187.5 337.5 C 189.953125 337.5 192.410156 337.441406 194.859375 337.320312 C 197.3125 337.199219 199.757812 337.019531 202.203125 336.777344 C 204.644531 336.535156 207.082031 336.238281 209.507812 335.875 C 211.9375 335.515625 214.355469 335.097656 216.761719 334.617188 C 219.171875 334.140625 221.566406 333.601562 223.945312 333.003906 C 226.328125 332.40625 228.695312 331.753906 231.042969 331.042969 C 233.390625 330.328125 235.722656 329.558594 238.035156 328.730469 C 240.34375 327.90625 242.632812 327.019531 244.902344 326.082031 C 247.171875 325.140625 249.414062 324.148438 251.632812 323.097656 C 253.851562 322.046875 256.042969 320.945312 258.210938 319.789062 C 260.375 318.632812 262.507812 317.421875 264.617188 316.160156 C 266.722656 314.898438 268.792969 313.585938 270.835938 312.21875 C 272.875 310.855469 274.882812 309.445312 276.855469 307.980469 C 278.828125 306.519531 280.761719 305.007812 282.660156 303.453125 C 284.554688 301.894531 286.414062 300.292969 288.234375 298.644531 C 290.050781 296.992188 291.832031 295.300781 293.566406 293.566406 C 295.300781 291.832031 296.992188 290.050781 298.644531 288.234375 C 300.292969 286.414062 301.894531 284.554688 303.453125 282.660156 C 305.007812 280.761719 306.519531 278.828125 307.980469 276.855469 C 309.445312 274.882812 310.855469 272.875 312.21875 270.835938 C 313.585938 268.792969 314.898438 266.722656 316.160156 264.617188 C 317.421875 262.507812 318.632812 260.375 319.789062 258.210938 C 320.945312 256.042969 322.046875 253.851562 323.097656 251.632812 C 324.148438 249.414062 325.140625 247.171875 326.082031 244.902344 C 327.019531 242.632812 327.90625 240.34375 328.730469 238.035156 C 329.558594 235.722656 330.328125 233.390625 331.042969 231.042969 C 331.753906 228.695312 332.40625 226.328125 333.003906 223.945312 C 333.601562 221.566406 334.140625 219.171875 334.617188 216.761719 C 335.097656 214.355469 335.515625 211.9375 335.875 209.507812 C 336.238281 207.082031 336.535156 204.644531 336.777344 202.203125 C 337.019531 199.757812 337.199219 197.3125 337.320312 194.859375 C 337.441406 192.410156 337.5 189.953125 337.5 187.5 C 337.5 185.046875 337.4375 182.59375 337.316406 180.140625 C 337.195312 177.6875 337.011719 175.242188 336.769531 172.800781 C 336.53125 170.355469 336.226562 167.921875 335.867188 165.492188 C 335.507812 163.066406 335.085938 160.648438 334.605469 158.242188 C 334.125 155.835938 333.585938 153.441406 332.992188 151.058594 C 332.394531 148.679688 331.738281 146.3125 331.023438 143.964844 C 330.3125 141.617188 329.542969 139.285156 328.714844 136.976562 C 327.886719 134.664062 327.003906 132.375 326.0625 130.109375 C 325.121094 127.839844 324.128906 125.597656 323.078125 123.378906 C 322.027344 121.160156 320.925781 118.96875 319.765625 116.804688 C 318.609375 114.640625 317.398438 112.503906 316.136719 110.398438 C 314.875 108.296875 313.5625 106.222656 312.199219 104.179688 C 310.835938 102.140625 309.421875 100.136719 307.957031 98.164062 C 306.496094 96.191406 304.988281 94.257812 303.429688 92.359375 C 301.871094 90.464844 300.269531 88.605469 298.621094 86.785156 C 296.972656 84.96875 295.28125 83.191406 293.542969 81.457031 C 291.808594 79.71875 290.03125 78.027344 288.214844 76.378906 C 286.394531 74.730469 284.535156 73.128906 282.640625 71.570312 C 280.742188 70.011719 278.808594 68.503906 276.835938 67.042969 C 274.863281 65.578125 272.859375 64.164062 270.820312 62.800781 C 268.777344 61.4375 266.703125 60.125 264.601562 58.863281 C 262.496094 57.601562 260.359375 56.390625 258.195312 55.234375 C 256.03125 54.074219 253.839844 52.972656 251.621094 51.921875 C 249.402344 50.871094 247.160156 49.878906 244.890625 48.9375 C 242.625 47.996094 240.335938 47.113281 238.023438 46.285156 C 235.714844 45.457031 233.382812 44.6875 231.035156 43.976562 C 228.6875 43.261719 226.320312 42.605469 223.941406 42.007812 C 221.558594 41.414062 219.164062 40.875 216.757812 40.394531 C 214.351562 39.914062 211.933594 39.492188 209.507812 39.132812 C 207.078125 38.773438 204.644531 38.46875 202.199219 38.230469 C 199.757812 37.988281 197.3125 37.804688 194.859375 37.683594 C 192.40625 37.5625 189.953125 37.5 187.5 37.5 Z M 247.65625 257.523438 C 247.65625 257.796875 247.628906 258.066406 247.574219 258.332031 C 247.523438 258.597656 247.445312 258.855469 247.339844 259.109375 C 247.234375 259.359375 247.109375 259.597656 246.957031 259.824219 C 246.808594 260.050781 246.636719 260.257812 246.441406 260.449219 C 246.25 260.640625 246.042969 260.8125 245.816406 260.964844 C 245.589844 261.117188 245.351562 261.242188 245.101562 261.347656 C 244.851562 261.449219 244.589844 261.53125 244.324219 261.582031 C 244.058594 261.636719 243.789062 261.660156 243.515625 261.660156 L 132.425781 261.660156 C 132.152344 261.660156 131.882812 261.636719 131.617188 261.582031 C 131.351562 261.53125 131.089844 261.449219 130.839844 261.347656 C 130.589844 261.242188 130.351562 261.117188 130.125 260.964844 C 129.898438 260.8125 129.691406 260.640625 129.5 260.449219 C 129.304688 260.257812 129.132812 260.050781 128.984375 259.824219 C 128.832031 259.597656 128.707031 259.359375 128.601562 259.109375 C 128.496094 258.855469 128.417969 258.597656 128.367188 258.332031 C 128.3125 258.066406 128.285156 257.796875 128.285156 257.523438 L 128.285156 233.804688 C 128.285156 233.226562 128.402344 232.675781 128.632812 232.148438 C 128.863281 231.621094 129.1875 231.164062 129.609375 230.773438 L 187.5 177.011719 C 191.828125 173.328125 195.660156 169.191406 199.003906 164.597656 C 200.003906 163.164062 200.769531 161.613281 201.296875 159.949219 C 201.824219 158.285156 202.097656 156.578125 202.105469 154.832031 C 202.230469 152.886719 201.960938 151.003906 201.289062 149.175781 C 200.621094 147.347656 199.609375 145.734375 198.257812 144.332031 C 196.707031 142.988281 194.953125 141.992188 193.007812 141.339844 C 191.058594 140.691406 189.0625 140.4375 187.015625 140.574219 C 184.726562 140.542969 182.519531 140.957031 180.398438 141.816406 C 178.277344 142.675781 176.40625 143.914062 174.785156 145.53125 C 172.894531 147.441406 171.328125 149.589844 170.09375 151.980469 C 168.859375 154.371094 168.007812 156.886719 167.542969 159.539062 C 167.484375 159.8125 167.398438 160.082031 167.28125 160.339844 C 167.167969 160.597656 167.027344 160.839844 166.863281 161.070312 C 166.699219 161.300781 166.511719 161.511719 166.304688 161.703125 C 166.097656 161.894531 165.871094 162.0625 165.628906 162.207031 C 165.386719 162.355469 165.132812 162.472656 164.867188 162.566406 C 164.597656 162.660156 164.324219 162.726562 164.046875 162.761719 C 163.765625 162.800781 163.484375 162.808594 163.203125 162.789062 C 162.921875 162.765625 162.644531 162.71875 162.371094 162.640625 L 130.398438 153.445312 C 129.921875 153.308594 129.484375 153.09375 129.085938 152.800781 C 128.6875 152.503906 128.351562 152.152344 128.082031 151.738281 C 127.808594 151.324219 127.617188 150.875 127.507812 150.394531 C 127.398438 149.910156 127.375 149.425781 127.4375 148.933594 C 127.875 145.625 128.617188 142.386719 129.664062 139.214844 C 130.710938 136.046875 132.039062 133 133.65625 130.082031 C 135.273438 127.160156 137.144531 124.414062 139.277344 121.84375 C 141.40625 119.277344 143.757812 116.925781 146.328125 114.796875 C 149.0625 112.4375 151.996094 110.347656 155.117188 108.527344 C 158.242188 106.710938 161.507812 105.195312 164.910156 103.980469 C 168.316406 102.765625 171.800781 101.875 175.371094 101.308594 C 178.941406 100.742188 182.53125 100.507812 186.144531 100.601562 C 189.972656 100.421875 193.785156 100.574219 197.585938 101.066406 C 201.386719 101.554688 205.117188 102.371094 208.773438 103.519531 C 212.429688 104.667969 215.957031 106.125 219.359375 107.894531 C 222.757812 109.664062 225.976562 111.714844 229.015625 114.050781 C 230.402344 115.222656 231.714844 116.472656 232.957031 117.796875 C 234.199219 119.121094 235.363281 120.511719 236.445312 121.972656 C 237.527344 123.429688 238.519531 124.945312 239.429688 126.519531 C 240.335938 128.089844 241.148438 129.710938 241.867188 131.378906 C 242.589844 133.046875 243.210938 134.75 243.734375 136.488281 C 244.257812 138.226562 244.679688 139.992188 245 141.777344 C 245.320312 143.566406 245.535156 145.367188 245.648438 147.179688 C 245.757812 148.992188 245.765625 150.804688 245.667969 152.617188 C 245.726562 157.28125 245.148438 161.867188 243.941406 166.371094 C 242.730469 170.875 240.9375 175.132812 238.550781 179.140625 C 232.667969 188.332031 225.601562 196.5 217.355469 203.648438 L 197.699219 221.316406 L 243.464844 221.316406 C 243.738281 221.316406 244.007812 221.34375 244.273438 221.398438 C 244.539062 221.449219 244.796875 221.527344 245.050781 221.632812 C 245.300781 221.734375 245.539062 221.863281 245.765625 222.015625 C 245.992188 222.164062 246.199219 222.335938 246.390625 222.527344 C 246.582031 222.722656 246.753906 222.929688 246.90625 223.15625 C 247.058594 223.382812 247.183594 223.621094 247.289062 223.871094 C 247.390625 224.121094 247.472656 224.382812 247.523438 224.648438 C 247.578125 224.914062 247.601562 225.183594 247.601562 225.457031 Z M 247.65625 257.523438 " fill-opacity="1" fill-rule="evenodd"/></g></svg>