<svg xmlns="http://www.w3.org/2000/svg" xmlns:xlink="http://www.w3.org/1999/xlink" width="500" zoomAndPan="magnify" viewBox="0 0 375 374.999991" height="500" preserveAspectRatio="xMidYMid meet" version="1.0"><defs><clipPath id="7c4ed6ac36"><path d="M 104.382812 91.984375 L 270.617188 91.984375 L 270.617188 283 L 104.382812 283 Z M 104.382812 91.984375 " clip-rule="nonzero"/></clipPath><clipPath id="13baa02afc"><path d="M 37.5 37.5 L 337.5 37.5 L 337.5 337.5 L 37.5 337.5 Z M 37.5 37.5 " clip-rule="nonzero"/></clipPath></defs><g clip-path="url(#7c4ed6ac36)"><path fill="#ffffff" d="M 104.382812 91.984375 L 270.789062 91.984375 L 270.789062 283 L 104.382812 283 Z M 104.382812 91.984375 " fill-opacity="1" fill-rule="nonzero"/></g><g clip-path="url(#13baa02afc)"><path fill="#004b27" d="M 187.5 37.5 C 185.046875 37.5 182.589844 37.558594 180.140625 37.679688 C 177.6875 37.800781 175.242188 37.980469 172.796875 38.222656 C 170.355469 38.464844 167.917969 38.761719 165.492188 39.125 C 163.0625 39.484375 160.644531 39.902344 158.238281 40.382812 C 155.828125 40.859375 153.433594 41.398438 151.054688 41.996094 C 148.671875 42.589844 146.304688 43.246094 143.957031 43.957031 C 141.609375 44.671875 139.277344 45.441406 136.964844 46.269531 C 134.65625 47.09375 132.367188 47.980469 130.097656 48.917969 C 127.828125 49.859375 125.585938 50.851562 123.367188 51.902344 C 121.148438 52.953125 118.957031 54.054688 116.789062 55.210938 C 114.625 56.367188 112.488281 57.578125 110.382812 58.839844 C 108.277344 60.101562 106.207031 61.414062 104.164062 62.78125 C 102.125 64.144531 100.117188 65.554688 98.144531 67.019531 C 96.171875 68.480469 94.238281 69.992188 92.339844 71.546875 C 90.441406 73.105469 88.585938 74.707031 86.765625 76.355469 C 84.945312 78.007812 83.167969 79.699219 81.433594 81.433594 C 79.699219 83.167969 78.007812 84.945312 76.355469 86.765625 C 74.707031 88.585938 73.105469 90.445312 71.546875 92.339844 C 69.992188 94.238281 68.480469 96.171875 67.019531 98.144531 C 65.554688 100.117188 64.144531 102.125 62.78125 104.164062 C 61.414062 106.207031 60.101562 108.277344 58.839844 110.382812 C 57.578125 112.488281 56.367188 114.625 55.210938 116.789062 C 54.054688 118.957031 52.953125 121.148438 51.902344 123.367188 C 50.851562 125.585938 49.859375 127.828125 48.917969 130.097656 C 47.980469 132.367188 47.09375 134.65625 46.269531 136.964844 C 45.441406 139.277344 44.671875 141.609375 43.957031 143.957031 C 43.246094 146.304688 42.589844 148.671875 41.996094 151.054688 C 41.398438 153.433594 40.859375 155.828125 40.382812 158.238281 C 39.902344 160.644531 39.484375 163.0625 39.125 165.492188 C 38.761719 167.917969 38.464844 170.355469 38.222656 172.796875 C 37.980469 175.242188 37.800781 177.6875 37.679688 180.140625 C 37.558594 182.589844 37.5 185.046875 37.5 187.5 C 37.5 189.953125 37.558594 192.410156 37.679688 194.859375 C 37.800781 197.3125 37.980469 199.757812 38.222656 202.203125 C 38.464844 204.644531 38.761719 207.082031 39.125 209.507812 C 39.484375 211.9375 39.902344 214.355469 40.382812 216.761719 C 40.859375 219.171875 41.398438 221.566406 41.996094 223.945312 C 42.589844 226.328125 43.246094 228.695312 43.957031 231.042969 C 44.671875 233.390625 45.441406 235.722656 46.269531 238.035156 C 47.09375 240.34375 47.980469 242.632812 48.917969 244.902344 C 49.859375 247.171875 50.851562 249.414062 51.902344 251.632812 C 52.953125 253.851562 54.054688 256.042969 55.210938 258.210938 C 56.367188 260.375 57.578125 262.507812 58.839844 264.617188 C 60.101562 266.722656 61.414062 268.792969 62.78125 270.835938 C 64.144531 272.875 65.554688 274.882812 67.019531 276.855469 C 68.480469 278.828125 69.992188 280.761719 71.546875 282.660156 C 73.105469 284.554688 74.707031 286.414062 76.355469 288.234375 C 78.007812 290.050781 79.699219 291.832031 81.433594 293.566406 C 83.167969 295.300781 84.945312 296.992188 86.765625 298.644531 C 88.585938 300.292969 90.441406 301.894531 92.339844 303.453125 C 94.238281 305.007812 96.171875 306.519531 98.144531 307.980469 C 100.117188 309.445312 102.125 310.855469 104.164062 312.21875 C 106.207031 313.585938 108.277344 314.898438 110.382812 316.160156 C 112.488281 317.421875 114.625 318.632812 116.789062 319.789062 C 118.957031 320.945312 121.148438 322.046875 123.367188 323.097656 C 125.585938 324.148438 127.828125 325.140625 130.097656 326.082031 C 132.367188 327.019531 134.65625 327.90625 136.964844 328.730469 C 139.277344 329.558594 141.609375 330.328125 143.957031 331.042969 C 146.304688 331.753906 148.671875 332.40625 151.054688 333.003906 C 153.433594 333.601562 155.828125 334.140625 158.238281 334.617188 C 160.644531 335.097656 163.0625 335.515625 165.492188 335.875 C 167.917969 336.238281 170.355469 336.535156 172.796875 336.777344 C 175.242188 337.019531 177.6875 337.199219 180.140625 337.320312 C 182.589844 337.441406 185.046875 337.5 187.5 337.5 C 189.953125 337.5 192.410156 337.441406 194.859375 337.320312 C 197.3125 337.199219 199.757812 337.019531 202.203125 336.777344 C 204.644531 336.535156 207.082031 336.238281 209.507812 335.875 C 211.9375 335.515625 214.355469 335.097656 216.761719 334.617188 C 219.171875 334.140625 221.566406 333.601562 223.945312 333.003906 C 226.328125 332.40625 228.695312 331.753906 231.042969 331.042969 C 233.390625 330.328125 235.722656 329.558594 238.035156 328.730469 C 240.34375 327.90625 242.632812 327.019531 244.902344 326.082031 C 247.171875 325.140625 249.414062 324.148438 251.632812 323.097656 C 253.851562 322.046875 256.042969 320.945312 258.210938 319.789062 C 260.375 318.632812 262.507812 317.421875 264.617188 316.160156 C 266.722656 314.898438 268.792969 313.585938 270.835938 312.21875 C 272.875 310.855469 274.882812 309.445312 276.855469 307.980469 C 278.828125 306.519531 280.761719 305.007812 282.660156 303.453125 C 284.554688 301.894531 286.414062 300.292969 288.234375 298.644531 C 290.050781 296.992188 291.832031 295.300781 293.566406 293.566406 C 295.300781 291.832031 296.992188 290.050781 298.644531 288.234375 C 300.292969 286.414062 301.894531 284.554688 303.453125 282.660156 C 305.007812 280.761719 306.519531 278.828125 307.980469 276.855469 C 309.445312 274.882812 310.855469 272.875 312.21875 270.835938 C 313.585938 268.792969 314.898438 266.722656 316.160156 264.617188 C 317.421875 262.507812 318.632812 260.375 319.789062 258.210938 C 320.945312 256.042969 322.046875 253.851562 323.097656 251.632812 C 324.148438 249.414062 325.140625 247.171875 326.082031 244.902344 C 327.019531 242.632812 327.90625 240.34375 328.730469 238.035156 C 329.558594 235.722656 330.328125 233.390625 331.042969 231.042969 C 331.753906 228.695312 332.40625 226.328125 333.003906 223.945312 C 333.601562 221.566406 334.140625 219.171875 334.617188 216.761719 C 335.097656 214.355469 335.515625 211.9375 335.875 209.507812 C 336.238281 207.082031 336.535156 204.644531 336.777344 202.203125 C 337.019531 199.757812 337.199219 197.3125 337.320312 194.859375 C 337.441406 192.410156 337.5 189.953125 337.5 187.5 C 337.5 185.046875 337.4375 182.59375 337.316406 180.140625 C 337.195312 177.6875 337.011719 175.242188 336.769531 172.800781 C 336.53125 170.355469 336.226562 167.921875 335.867188 165.492188 C 335.507812 163.066406 335.085938 160.648438 334.605469 158.242188 C 334.125 155.835938 333.585938 153.441406 332.992188 151.058594 C 332.394531 148.679688 331.738281 146.3125 331.023438 143.964844 C 330.3125 141.617188 329.542969 139.285156 328.714844 136.976562 C 327.886719 134.664062 327.003906 132.375 326.0625 130.109375 C 325.121094 127.839844 324.128906 125.597656 323.078125 123.378906 C 322.027344 121.160156 320.925781 118.96875 319.765625 116.804688 C 318.609375 114.640625 317.398438 112.503906 316.136719 110.398438 C 314.875 108.296875 313.5625 106.222656 312.199219 104.179688 C 310.835938 102.140625 309.421875 100.136719 307.957031 98.164062 C 306.496094 96.191406 304.988281 94.257812 303.429688 92.359375 C 301.871094 90.464844 300.269531 88.605469 298.621094 86.785156 C 296.972656 84.96875 295.28125 83.191406 293.542969 81.457031 C 291.808594 79.71875 290.03125 78.027344 288.214844 76.378906 C 286.394531 74.730469 284.535156 73.128906 282.640625 71.570312 C 280.742188 70.011719 278.808594 68.503906 276.835938 67.042969 C 274.863281 65.578125 272.859375 64.164062 270.820312 62.800781 C 268.777344 61.4375 266.703125 60.125 264.601562 58.863281 C 262.496094 57.601562 260.359375 56.390625 258.195312 55.234375 C 256.03125 54.074219 253.839844 52.972656 251.621094 51.921875 C 249.402344 50.871094 247.160156 49.878906 244.890625 48.9375 C 242.625 47.996094 240.335938 47.113281 238.023438 46.285156 C 235.714844 45.457031 233.382812 44.6875 231.035156 43.976562 C 228.6875 43.261719 226.320312 42.605469 223.941406 42.007812 C 221.558594 41.414062 219.164062 40.875 216.757812 40.394531 C 214.351562 39.914062 211.933594 39.492188 209.507812 39.132812 C 207.078125 38.773438 204.644531 38.46875 202.199219 38.230469 C 199.757812 37.988281 197.3125 37.804688 194.859375 37.683594 C 192.40625 37.5625 189.953125 37.5 187.5 37.5 Z M 232.820312 255.960938 C 229.96875 258.664062 226.878906 261.0625 223.554688 263.15625 C 220.230469 265.25 216.730469 266.996094 213.0625 268.402344 C 209.390625 269.804688 205.621094 270.839844 201.746094 271.5 C 197.875 272.160156 193.972656 272.4375 190.042969 272.328125 C 185.972656 272.546875 181.917969 272.386719 177.878906 271.839844 C 173.839844 271.292969 169.886719 270.371094 166.019531 269.074219 C 162.15625 267.78125 158.445312 266.132812 154.894531 264.136719 C 151.339844 262.136719 148.003906 259.824219 144.890625 257.191406 C 142.246094 254.867188 139.824219 252.332031 137.617188 249.585938 C 135.410156 246.84375 133.453125 243.929688 131.75 240.847656 C 130.042969 237.769531 128.613281 234.566406 127.460938 231.238281 C 126.304688 227.914062 125.441406 224.511719 124.871094 221.039062 C 124.789062 220.535156 124.796875 220.035156 124.898438 219.535156 C 124.996094 219.035156 125.183594 218.570312 125.457031 218.140625 C 125.726562 217.710938 126.066406 217.34375 126.476562 217.039062 C 126.882812 216.734375 127.332031 216.511719 127.820312 216.371094 L 159.746094 207.25 C 160.019531 207.171875 160.304688 207.125 160.589844 207.105469 C 160.875 207.089844 161.160156 207.101562 161.445312 207.140625 C 161.730469 207.183594 162.003906 207.253906 162.273438 207.351562 C 162.542969 207.453125 162.800781 207.578125 163.042969 207.730469 C 163.285156 207.882812 163.511719 208.058594 163.71875 208.257812 C 163.925781 208.457031 164.109375 208.671875 164.269531 208.910156 C 164.429688 209.148438 164.566406 209.398438 164.675781 209.664062 C 164.785156 209.929688 164.863281 210.203125 164.917969 210.484375 C 165.449219 213.492188 166.421875 216.347656 167.835938 219.058594 C 169.246094 221.765625 171.035156 224.195312 173.191406 226.355469 C 174.121094 227.363281 175.140625 228.261719 176.253906 229.058594 C 177.367188 229.851562 178.550781 230.527344 179.800781 231.078125 C 181.054688 231.628906 182.351562 232.046875 183.6875 232.328125 C 185.027344 232.613281 186.378906 232.753906 187.75 232.757812 C 189.046875 232.835938 190.34375 232.78125 191.628906 232.59375 C 192.917969 232.410156 194.175781 232.097656 195.402344 231.660156 C 196.628906 231.21875 197.796875 230.664062 198.910156 229.988281 C 200.023438 229.3125 201.058594 228.53125 202.015625 227.648438 C 202.414062 227.257812 202.796875 226.851562 203.15625 226.425781 C 203.515625 226 203.855469 225.554688 204.171875 225.097656 C 204.488281 224.636719 204.78125 224.160156 205.050781 223.671875 C 205.320312 223.183594 205.566406 222.683594 205.785156 222.167969 C 206.003906 221.65625 206.199219 221.132812 206.367188 220.601562 C 206.535156 220.066406 206.679688 219.527344 206.792969 218.980469 C 206.90625 218.4375 206.996094 217.886719 207.054688 217.328125 C 207.117188 216.773438 207.148438 216.21875 207.152344 215.660156 C 207.160156 215.101562 207.136719 214.542969 207.085938 213.988281 C 207.039062 213.429688 206.960938 212.878906 206.855469 212.332031 C 206.75 211.78125 206.621094 211.238281 206.460938 210.703125 C 206.304688 210.167969 206.117188 209.644531 205.910156 209.125 C 205.699219 208.609375 205.464844 208.101562 205.203125 207.609375 C 204.941406 207.113281 204.660156 206.632812 204.351562 206.167969 C 204.042969 205.703125 203.710938 205.253906 203.359375 204.820312 C 203.007812 204.386719 202.632812 203.972656 202.242188 203.574219 C 201.328125 202.714844 200.332031 201.953125 199.261719 201.296875 C 198.191406 200.636719 197.0625 200.09375 195.882812 199.667969 C 194.699219 199.242188 193.484375 198.9375 192.242188 198.761719 C 190.996094 198.582031 189.746094 198.53125 188.492188 198.609375 C 184.363281 198.46875 180.425781 199.273438 176.679688 201.019531 C 176.40625 201.160156 176.125 201.265625 175.828125 201.339844 C 175.53125 201.417969 175.230469 201.460938 174.925781 201.46875 C 174.621094 201.476562 174.316406 201.453125 174.019531 201.394531 C 173.71875 201.335938 173.429688 201.246094 173.148438 201.125 C 172.867188 201.003906 172.605469 200.851562 172.359375 200.671875 C 172.113281 200.492188 171.890625 200.285156 171.6875 200.054688 C 171.488281 199.824219 171.3125 199.578125 171.167969 199.308594 C 171.023438 199.039062 170.90625 198.757812 170.824219 198.464844 L 164.886719 177.570312 C 164.707031 176.929688 164.679688 176.285156 164.808594 175.632812 C 164.9375 174.984375 165.210938 174.398438 165.621094 173.875 L 184.933594 149.398438 L 133.707031 149.398438 C 133.433594 149.398438 133.167969 149.375 132.898438 149.320312 C 132.632812 149.265625 132.375 149.1875 132.125 149.085938 C 131.871094 148.980469 131.632812 148.855469 131.40625 148.703125 C 131.183594 148.550781 130.972656 148.378906 130.78125 148.1875 C 130.589844 147.996094 130.417969 147.785156 130.265625 147.5625 C 130.117188 147.335938 129.988281 147.097656 129.882812 146.84375 C 129.78125 146.59375 129.703125 146.335938 129.648438 146.070312 C 129.59375 145.804688 129.570312 145.535156 129.570312 145.261719 L 129.570312 113.015625 C 129.570312 112.746094 129.59375 112.476562 129.648438 112.210938 C 129.703125 111.945312 129.78125 111.683594 129.882812 111.433594 C 129.988281 111.183594 130.117188 110.945312 130.265625 110.71875 C 130.417969 110.492188 130.589844 110.285156 130.78125 110.089844 C 130.972656 109.898438 131.183594 109.726562 131.40625 109.578125 C 131.632812 109.425781 131.871094 109.296875 132.125 109.195312 C 132.375 109.089844 132.632812 109.011719 132.898438 108.957031 C 133.167969 108.90625 133.433594 108.878906 133.707031 108.878906 L 240.847656 108.878906 C 241.121094 108.878906 241.390625 108.90625 241.65625 108.957031 C 241.921875 109.011719 242.179688 109.089844 242.433594 109.195312 C 242.683594 109.296875 242.921875 109.425781 243.148438 109.578125 C 243.371094 109.726562 243.582031 109.898438 243.773438 110.089844 C 243.964844 110.285156 244.136719 110.492188 244.289062 110.71875 C 244.441406 110.945312 244.566406 111.183594 244.671875 111.433594 C 244.773438 111.683594 244.855469 111.945312 244.90625 112.210938 C 244.960938 112.476562 244.984375 112.746094 244.984375 113.015625 L 244.984375 136.808594 C 244.988281 137.898438 244.617188 138.839844 243.878906 139.632812 L 217.335938 168.175781 C 221.589844 169.671875 225.574219 171.699219 229.285156 174.257812 C 233 176.816406 236.3125 179.816406 239.222656 183.257812 C 241.070312 185.511719 242.699219 187.910156 244.113281 190.457031 C 245.523438 193.003906 246.699219 195.660156 247.632812 198.417969 C 248.566406 201.175781 249.25 203.996094 249.675781 206.878906 C 250.101562 209.757812 250.265625 212.65625 250.167969 215.566406 C 250.238281 219.355469 249.90625 223.109375 249.175781 226.828125 C 248.449219 230.546875 247.335938 234.148438 245.839844 237.628906 C 244.34375 241.113281 242.5 244.398438 240.304688 247.488281 C 238.109375 250.578125 235.617188 253.402344 232.820312 255.960938 Z M 232.820312 255.960938 " fill-opacity="1" fill-rule="evenodd"/></g></svg>